# File generated by ImageToStl.com - Free Image and 3D model conversion tools

mtllib Rock Type3 02.mtl

o obj1
v -0.8781337 -0.23392031 0.21053559
v -0.7451664 -0.1942672 0.11094699
v -0.4944174 -0.29441319 -0.17399221
v -0.585685 -0.46959739 -0.13129312
v -0.7451664 -0.1942672 0.11094699
v -0.5977796 -0.22853481 0.28538849
v -0.2979313 -0.3530474 0.00542693
v -0.4944174 -0.29441319 -0.17399221
v -0.7307468 -0.26818802 0.38497709
v -0.7020676 -0.42871111 0.33417918
v -0.4280339 -0.71906251 0.13870337
v -0.3367663 -0.5438784 0.09600422
v -0.7020676 -0.42871111 0.33417918
v -0.8494542 -0.39444331 0.15973758
v -0.6306719 -0.6585925 -0.0463334
v -0.4280339 -0.71906251 0.13870337
v -0.585685 -0.46959739 -0.13129312
v -0.4944174 -0.29441319 -0.17399221
v -0.7451664 -0.1942672 0.11094699
v -0.8781337 -0.23392031 0.21053559
v -0.7307468 -0.26818802 0.38497709
v -0.8781337 -0.23392031 0.21053559
v -0.8494542 -0.39444331 0.15973758
v -0.6306719 -0.6585925 -0.0463334
v -0.585685 -0.46959739 -0.13129312
v -0.3367663 -0.5438784 0.09600422
v -0.5977796 -0.22853481 0.28538849
v -0.2979313 -0.3530474 0.00542693
v -0.8494542 -0.39444331 0.15973758
v -0.8781337 -0.23392031 0.21053559
v -0.585685 -0.46959739 -0.13129312
v -0.6306719 -0.6585925 -0.0463334
v -0.8302802 -0.86748881 0.21053566
v -0.7954307 -0.7331824 0.11094697
v -0.5800123 -0.57039669 -0.17399222
v -0.4773025 -0.73912719 -0.13129323
v -0.7954307 -0.7331824 0.11094697
v -0.6898607 -0.62477551 0.28538857
v -0.42819 -0.4325754 0.00542692
v -0.5800123 -0.57039669 -0.17399222
v -0.7247099 -0.75908182 0.38497707
v -0.5724983 -0.81757701 0.33417916
v -0.1822564 -0.73325851 0.13870337
v -0.2849662 -0.564528 0.09600422
v -0.5724983 -0.81757701 0.33417916
v -0.6780684 -0.92598411 0.15973766
v -0.338832 -0.8753949 -0.04633341
v -0.1822564 -0.73325851 0.13870337
v -0.4773025 -0.73912719 -0.13129323
v -0.5800123 -0.57039669 -0.17399222
v -0.7954307 -0.7331824 0.11094697
v -0.8302802 -0.86748881 0.21053566
v -0.7247099 -0.75908182 0.38497707
v -0.8302802 -0.86748881 0.21053566
v -0.6780684 -0.92598411 0.15973766
v -0.338832 -0.8753949 -0.04633341
v -0.4773025 -0.73912719 -0.13129323
v -0.2849662 -0.564528 0.09600422
v -0.6898607 -0.62477551 0.28538857
v -0.42819 -0.4325754 0.00542692
v -0.6780684 -0.92598411 0.15973766
v -0.8302802 -0.86748881 0.21053566
v -0.4773025 -0.73912719 -0.13129323
v -0.338832 -0.8753949 -0.04633341
v 0.8713946 -0.70395851 0.31011867
v 0.801176 -0.73713151 0.22819187
v 0.74911 -0.7628741 -0.02467647
v 0.8572182 -0.6844232 -0.02467647
v 0.801176 -0.73713151 0.22819187
v 0.712462 -0.61488041 0.25010737
v 0.6433431 -0.6171237 -0.02467647
v 0.74911 -0.7628741 -0.02467647
v 0.7826806 -0.58170751 0.33203417
v 0.8359931 -0.52523761 0.25010738
v 0.8313357 -0.421328 -0.02467646
v 0.7232275 -0.4997789 -0.02467646
v 0.8359931 -0.52523761 0.25010738
v 0.924707 -0.64748841 0.22819187
v 0.940414 -0.5716418 -0.02467646
v 0.8313357 -0.421328 -0.02467646
v 0.8572182 -0.6844232 -0.02467647
v 0.74911 -0.7628741 -0.02467647
v 0.801176 -0.73713151 0.22819187
v 0.8713946 -0.70395851 0.31011867
v 0.7826806 -0.58170751 0.33203417
v 0.8713946 -0.70395851 0.31011867
v 0.924707 -0.64748841 0.22819187
v 0.940414 -0.5716418 -0.02467646
v 0.8572182 -0.6844232 -0.02467647
v 0.7232275 -0.4997789 -0.02467646
v 0.712462 -0.61488041 0.25010737
v 0.6433431 -0.6171237 -0.02467647
v 0.924707 -0.64748841 0.22819187
v 0.8713946 -0.70395851 0.31011867
v 0.8572182 -0.6844232 -0.02467647
v 0.940414 -0.5716418 -0.02467646
v 1.06664 0.88090688 0.45410494
v 1.123636 0.78498829 0.33639993
v 1.167537 0.7140219 -0.02689847
v 1.040627 0.8579739 -0.02689846
v 1.123636 0.78498829 0.33639993
v 0.9608524 0.64147648 0.36788623
v 0.973462 0.5429239 -0.02689848
v 1.167537 0.7140219 -0.02689847
v 0.9038559 0.73739508 0.48559123
v 0.8158379 0.80596478 0.36788624
v 0.667854 0.7851701 -0.02689841
v 0.7947635 0.6412181 -0.02689841
v 0.8158379 0.80596478 0.36788624
v 0.9786217 0.94947649 0.33639994
v 0.868005 0.9616252 -0.02689846
v 0.667854 0.7851701 -0.02689841
v 1.040627 0.8579739 -0.02689846
v 1.167537 0.7140219 -0.02689847
v 1.123636 0.78498829 0.33639993
v 1.06664 0.88090688 0.45410494
v 0.9038559 0.73739508 0.48559123
v 1.06664 0.88090688 0.45410494
v 0.9786217 0.94947649 0.33639994
v 0.868005 0.9616252 -0.02689846
v 1.040627 0.8579739 -0.02689846
v 0.7947635 0.6412181 -0.02689841
v 0.9608524 0.64147648 0.36788623
v 0.973462 0.5429239 -0.02689848
v 0.9786217 0.94947649 0.33639994
v 1.06664 0.88090688 0.45410494
v 1.040627 0.8579739 -0.02689846
v 0.868005 0.9616252 -0.02689846
v -0.3489013 0.3520099 -0.08887658
v 0.1995856 0.28525536 1.00649201
v 0.2044314 0.8958205 -0.08887656
v 0.1995856 0.78992216 1.00649103
v 0.6731703 0.85838216 0.92184734
v 0.8605317 0.9477629 -0.08887656
v 0.2044314 0.8958205 -0.08887656
v 0.6731703 0.85838216 0.92184734
v 0.9561091 0.02867837 0.9218474
v 1.177472 -0.07722008 -0.0888766
v 0.8605317 0.9477629 -0.08887656
v 0.5901341 -0.25971254 0.96279479
v 0.2044314 -0.07722008 -0.0888766
v 0.6763169 -0.5857598 -0.08887657
v 0.2044314 -0.07722008 -0.0888766
v -0.3489013 0.3520099 -0.08887658
v 0.2044314 0.8958205 -0.08887656
v 0.8605317 0.9477629 -0.08887656
v 1.177472 -0.07722008 -0.0888766
v 0.6763169 -0.5857598 -0.08887657
v 0.1995856 0.78992216 1.00649103
v 0.5828689 0.66101804 1.41981803
v 0.9430788 0.66101803 1.52350203
v 0.5828689 0.40036584 1.41981802
v 0.8395749 0.10670954 1.473846
v 0.6459802 0.20940022 1.90381901
v 0.5420461 0.37800692 1.87948502
v 0.9561091 0.02867837 0.9218474
v 0.9430788 0.66101803 1.52350203
v 1.075512 0.27504633 1.52350201
v 0.5828689 0.40036584 1.41981802
v 0.5828689 0.66101804 1.41981803
v 0.1995856 0.28525536 1.00649201
v 0.5901341 -0.25971254 0.96279479
v 0.8395749 0.10670954 1.473846
v 0.5828689 0.40036584 1.41981802
v 0.8371252 0.33559512 1.92861501
v 0.7518875 0.51705822 1.92861502
v 0.5420461 0.51705822 1.87948502
v 0.5420461 0.37800692 1.87948502
v 0.6459802 0.20940022 1.90381901
v 0.9430788 0.66101803 1.52350203
v 0.5828689 0.66101804 1.41981803
v 0.5420461 0.51705822 1.87948502
v 0.7518875 0.51705822 1.92861502
v 1.075512 0.27504633 1.52350201
v 0.9430788 0.66101803 1.52350203
v 0.7518875 0.51705822 1.92861502
v 0.8371252 0.33559512 1.92861501
v 0.5828689 0.66101804 1.41981803
v 0.5828689 0.40036584 1.41981802
v 0.5420461 0.37800692 1.87948502
v 0.5420461 0.51705822 1.87948502
v 0.2044314 -0.07722008 -0.0888766
v -0.3489013 0.3520099 -0.08887658
v 1.075512 0.27504633 1.52350201
v 0.8395749 0.10670954 1.473846
v 0.8395749 0.10670954 1.473846
v 1.075512 0.27504633 1.52350201
v 0.8371252 0.33559512 1.92861501
v 0.6459802 0.20940022 1.90381901
v 0.6763169 -0.5857598 -0.08887657
v 1.177472 -0.07722008 -0.0888766
v -1.015752 0.91711746 0.91589124
v -0.2110424 0.67068026 0.91589123
v 0.03765988 0.6456797 -0.05805835
v -1.12133 1.069179 -0.05805839
v -0.2110424 0.67068026 0.91589123
v -0.1683601 -0.01490093 0.3249429
v -0.05350083 -0.2812256 -0.05805839
v 0.03765988 0.6456797 -0.05805835
v -0.1683601 -0.01490093 0.3249429
v -1.072632 -0.16235151 0.32565499
v -1.064089 -0.4466046 -0.0580584
v -0.05350083 -0.2812256 -0.05805839
v -1.072632 -0.16235151 0.32565499
v -1.015752 0.91711746 0.91589124
v -1.12133 1.069179 -0.05805839
v -1.064089 -0.4466046 -0.0580584
v -1.12133 1.069179 -0.05805839
v 0.03765988 0.6456797 -0.05805835
v -0.7965111 0.60134874 1.35836003
v -0.2968063 0.41875474 1.35836002
v -0.7718312 -0.05218958 1.35836
v -0.3361107 0.01911443 1.35836
v -0.4290041 -0.01203514 1.706342
v -0.5865278 -0.03484929 1.710947
v -0.7718312 -0.05218958 1.35836
v -0.7965111 0.60134874 1.35836003
v -0.2968063 0.41875474 1.35836002
v -0.3361107 0.01911443 1.35836
v -0.3361107 0.01911443 1.35836
v -0.7718312 -0.05218958 1.35836
v -0.5865278 -0.03484929 1.710947
v -0.4290041 -0.01203514 1.706342
v -0.4102209 0.12621662 1.74518001
v -0.5878018 0.19162052 1.77685301
v -0.2968063 0.41875474 1.35836002
v -0.7965111 0.60134874 1.35836003
v -0.5878018 0.19162052 1.77685301
v -0.4102209 0.12621662 1.74518001
v -0.7965111 0.60134874 1.35836003
v -0.7718312 -0.05218958 1.35836
v -0.5865278 -0.03484929 1.710947
v -0.3361107 0.01911443 1.35836
v -0.2968063 0.41875474 1.35836002
v -0.4290041 -0.01203514 1.706342
v -0.00308698 -1.25207501 0.28183275
v -0.3323795 -0.65718881 0.28183267
v -0.4628677 -0.5030651 -0.03680576
v -0.02708745 -1.399698 -0.03680574
v -0.3323795 -0.65718881 0.28183267
v 0.02763259 -0.2348399 0.08849733
v 0.1103749 -0.01560854 -0.03680574
v -0.4628677 -0.5030651 -0.03680576
v 0.02763259 -0.2348399 0.08849733
v 0.6358685 -0.6567214 0.0887303
v 0.7904545 -0.4867467 -0.03680576
v 0.1103749 -0.01560854 -0.03680574
v 0.6358685 -0.6567214 0.0887303
v -0.00308698 -1.25207501 0.28183275
v -0.02708745 -1.399698 -0.03680574
v 0.7904545 -0.4867467 -0.03680576
v -0.02708745 -1.399698 -0.03680574
v -0.4628677 -0.5030651 -0.03680576
v 0.04675203 -0.94552202 0.42659126
v -0.141137 -0.55893392 0.42659128
v 0.3992397 -0.55189812 0.42659128
v 0.1060197 -0.34876422 0.42659128
v 0.1774842 -0.38280392 0.54043758
v 0.2818267 -0.45796422 0.54194418
v 0.3992397 -0.55189812 0.42659128
v 0.04675203 -0.94552202 0.42659126
v -0.141137 -0.55893392 0.42659128
v 0.1060197 -0.34876422 0.42659128
v 0.1060197 -0.34876422 0.42659128
v 0.3992397 -0.55189812 0.42659128
v 0.2818267 -0.45796422 0.54194418
v 0.1774842 -0.38280392 0.54043758
v 0.08896893 -0.45259922 0.55314388
v 0.1554501 -0.59028102 0.56350597
v -0.141137 -0.55893392 0.42659128
v 0.04675203 -0.94552202 0.42659126
v 0.1554501 -0.59028102 0.56350597
v 0.08896893 -0.45259922 0.55314388
v 0.04675203 -0.94552202 0.42659126
v 0.3992397 -0.55189812 0.42659128
v 0.2818267 -0.45796422 0.54194418
v 0.1060197 -0.34876422 0.42659128
v -0.141137 -0.55893392 0.42659128
v 0.1774842 -0.38280392 0.54043758
v 0.1763059 1.17087199 0.21053555
v 0.2374953 1.046339 0.11094705
v 0.1803924 0.78243841 -0.17399217
v -0.00751829 0.84333811 -0.13129306
v 0.2374953 1.046339 0.11094705
v 0.2281861 0.89530759 0.28538854
v 0.1552111 0.5789422 0.00542691
v 0.1803924 0.78243841 -0.17399217
v 0.1669967 1.01984098 0.38497704
v 0.0134676 0.96489559 0.33417914
v -0.2273303 0.64643869 0.13870333
v -0.03941941 0.5855389 0.09600427
v 0.0134676 0.96489559 0.33417914
v 0.0227769 1.11592699 0.15973755
v -0.2013605 0.8563061 -0.04633339
v -0.2273303 0.64643869 0.13870333
v -0.00751829 0.84333811 -0.13129306
v 0.1803924 0.78243841 -0.17399217
v 0.2374953 1.046339 0.11094705
v 0.1763059 1.17087199 0.21053555
v 0.1669967 1.01984098 0.38497704
v 0.1763059 1.17087199 0.21053555
v 0.0227769 1.11592699 0.15973755
v -0.2013605 0.8563061 -0.04633339
v -0.00751829 0.84333811 -0.13129306
v -0.03941941 0.5855389 0.09600427
v 0.2281861 0.89530759 0.28538854
v 0.1552111 0.5789422 0.00542691
v 0.0227769 1.11592699 0.15973755
v 0.1763059 1.17087199 0.21053555
v -0.00751829 0.84333811 -0.13129306
v -0.2013605 0.8563061 -0.04633339
v -0.4405117 1.01844199 0.21053554
v -0.3022823 1.006386 0.11094704
v -0.1059749 0.82100051 -0.17399216
v -0.2553002 0.69168991 -0.13129317
v -0.3022823 1.006386 0.11094704
v -0.1778452 0.92028989 0.28538854
v 0.0551508 0.6941809 0.00542691
v -0.1059749 0.82100051 -0.17399216
v -0.3160744 0.93234548 0.38497714
v -0.3484731 0.77253189 0.33417913
v -0.2005029 0.40171759 0.13870332
v -0.05117774 0.5310283 0.09600426
v -0.3484731 0.77253189 0.33417913
v -0.4729104 0.85862779 0.15973754
v -0.3666735 0.5325076 -0.04633341
v -0.2005029 0.40171759 0.13870332
v -0.2553002 0.69168991 -0.13129317
v -0.1059749 0.82100051 -0.17399216
v -0.3022823 1.006386 0.11094704
v -0.4405117 1.01844199 0.21053554
v -0.3160744 0.93234548 0.38497714
v -0.4405117 1.01844199 0.21053554
v -0.4729104 0.85862779 0.15973754
v -0.3666735 0.5325076 -0.04633341
v -0.2553002 0.69168991 -0.13129317
v -0.05117774 0.5310283 0.09600426
v -0.1778452 0.92028989 0.28538854
v 0.0551508 0.6941809 0.00542691
v -0.4729104 0.85862779 0.15973754
v -0.4405117 1.01844199 0.21053554
v -0.2553002 0.69168991 -0.13129317
v -0.3666735 0.5325076 -0.04633341
vn -0.66998 -0.70511 -0.23229
vn 0.32058 -0.0634 -0.9451
vn 0.51634 0.84839 0.11673
vn -0.56104 0.34838 0.75091
vn 0.52535 -0.72231 0.44975
vn -0.08888 0.26377 -0.96048
vn -0.75429 0.57508 0.31675
vn 0.52535 -0.72231 0.44975
vn 0.66744 0.73648 -0.11014
vn -0.74451 -0.66691 0.03045
vn -0.54537 -0.70511 0.4532
vn -0.64298 -0.0634 -0.76325
vn 0.36701 0.84839 -0.3815
vn 0.3524 0.34838 0.86858
vn 0.65667 -0.72231 -0.21694
vn -0.86796 0.26377 -0.4208
vn -0.11912 0.57508 0.80938
vn 0.65667 -0.72231 -0.21694
vn 0.25101 0.73648 -0.62817
vn -0.35908 -0.66691 0.65291
vn 0.54717 -0.05285 0.83535
vn -0.78288 0.21085 0.58536
vn -0.52333 0.28903 -0.80162
vn 0.79944 0.20866 -0.56335
vn 0 -1 0
vn -0.53924 0.66919 0.51127
vn 0.65329 0.66919 -0.35411
vn -0.7489 0.23086 -0.62118
vn 0.74887 -0.10427 0.65447
vn 0.7798 -0.05285 -0.6238
vn 0.65684 0.21085 0.72395
vn -0.74847 0.28903 0.59687
vn -0.6365 0.20866 -0.74251
vn 0.56003 0.66919 0.48841
vn -0.41437 0.66919 -0.61683
vn 0 -1 0
vn -0.54749 0.23086 0.80434
vn 0.58063 -0.10427 -0.80746
vn -0.65205 0.36694 -0.66347
vn -0.09947 0.08286 -0.99158
vn 0.93477 0.18653 -0.30234
vn -0.75915 0.16936 0.62849
vn -0.08456 0.35384 -0.93147
vn -0.76784 -0.146 0.62379
vn 0.90144 -0.30419 -0.30801
vn -0.73325 0.67996 -0
vn -0.60402 0.65211 0.45816
vn -0.18169 0.98321 0.0167
vn -0.07927 0.29569 -0.95199
vn 0.82431 0.4696 -0.31621
vn -0.99608 -0.08846 0
vn -0.59338 0.25051 0.76495
vn -0.99999 -0.00442 0
vn 0.58564 0.23337 0.77625
vn 0.47272 0.3982 0.78611
vn 0.66202 0.24693 0.70764
vn 0.32171 0.08515 -0.943
vn 0.94998 0.28292 0.13224
vn 0.13015 0.59206 0.79531
vn -0.9972 0.0729 0.01672
vn 0.27234 0.49011 -0.82802
vn 0.15626 -0.04007 0.9869
vn -0.94309 0.31973 0.09137
vn 0.98418 0.15689 0.08237
vn 0.16087 0.05839 0.98525
vn 0.06833 0.95803 0.27841
vn 0.29811 0.60708 -0.73661
vn -0.90075 0.43035 0.0588
vn 0.96831 0.21884 0.12037
vn -0.87059 0.20649 0.44657
vn -0.49839 0.58878 -0.63635
vn 0.27489 0.87577 -0.3968
vn 0.71918 0.17763 0.67174
vn -0.51702 0.81146 0.27244
vn 0.57092 -0.09854 -0.81507
vn 0.60145 0.64018 0.47795
vn -0.6133 0.3652 -0.70035
vn 0.56391 0.14296 -0.81337
vn 0.06054 0.99274 -0.10395
vn -0.42798 0.88355 0.19019
vn 0.49393 0.76218 0.41847
vn -0.54942 0.48451 -0.68073
vn 0.11777 -0.70511 -0.69925
vn 0.98522 -0.0634 0.15913
vn -0.02934 0.84839 0.52856
vn -0.83367 0.34838 -0.42851
vn -0.35624 -0.72231 0.59276
vn 0.93238 0.26377 -0.24719
vn -0.43764 0.57508 -0.6912
vn -0.35624 -0.72231 0.59276
vn 0.21948 0.73648 0.63987
vn -0.15369 -0.66691 -0.72911
vn -0.5375 -0.70511 -0.46252
vn 0.64584 -0.0634 -0.76083
vn 0.43716 0.84839 0.29854
vn -0.79798 0.34839 0.49179
vn 0.323 -0.72231 0.61151
vn 0.27078 0.26377 -0.9258
vn -0.81792 0.57508 0.01698
vn 0.323 -0.72231 0.61151
vn 0.66114 0.73648 0.14318
vn -0.70348 -0.66691 -0.24564
vt 0.22028 0.71247
vt 0.25628 0.71247
vt 0.25628 0.74847
vt 0.22028 0.74847
vt 0.18903 0.20465
vt 0.22503 0.20465
vt 0.22503 0.24066
vt 0.18903 0.24066
vt 0.20465 0.74372
vt 0.24066 0.74372
vt 0.24066 0.77972
vt 0.20465 0.77972
vt 0.22266 0.77972
vt 0.23825 0.77072
vt 0.23825 0.75272
vt 0.22266 0.74372
vt 0.20707 0.75272
vt 0.20707 0.77072
vt 0.23978 0.76728
vt 0.23324 0.74716
vt 0.21208 0.74716
vt 0.20554 0.76728
vt 0.70075 0.232
vt 0.73675 0.232
vt 0.73675 0.268
vt 0.70075 0.268
usemtl mat0
f 1/1/1 2/2/1 3/3/1
f 1/1/1 3/3/1 4/4/1
f 5/1/2 6/2/2 7/3/2
f 5/1/2 7/3/2 8/4/2
f 9/1/3 10/2/3 11/3/3
f 9/1/3 11/3/3 12/4/3
f 13/1/4 14/2/4 15/3/4
f 13/1/4 15/3/4 16/4/4
f 17/1/5 18/2/5 7/3/5
f 17/1/5 7/3/5 12/4/5
f 9/1/6 6/2/6 19/3/6
f 9/1/6 19/3/6 20/4/6
f 13/1/7 21/2/7 22/3/7
f 13/1/7 22/3/7 23/4/7
f 24/1/8 25/2/8 26/3/8
f 24/1/8 26/3/8 16/4/8
f 27/1/9 21/2/9 26/3/9
f 27/1/9 26/3/9 28/4/9
f 29/1/10 30/2/10 31/3/10
f 29/1/10 31/3/10 32/4/10
f 33/5/11 34/6/11 35/7/11
f 33/5/11 35/7/11 36/8/11
f 37/5/12 38/6/12 39/7/12
f 37/5/12 39/7/12 40/8/12
f 41/5/13 42/6/13 43/7/13
f 41/5/13 43/7/13 44/8/13
f 45/5/14 46/6/14 47/7/14
f 45/5/14 47/7/14 48/8/14
f 49/5/15 50/6/15 39/7/15
f 49/5/15 39/7/15 44/8/15
f 41/5/16 38/6/16 51/7/16
f 41/5/16 51/7/16 52/8/16
f 45/5/17 53/6/17 54/7/17
f 45/5/17 54/7/17 55/8/17
f 56/5/18 57/6/18 58/7/18
f 56/5/18 58/7/18 48/8/18
f 59/5/19 53/6/19 58/7/19
f 59/5/19 58/7/19 60/8/19
f 61/5/20 62/6/20 63/7/20
f 61/5/20 63/7/20 64/8/20
f 65/1/21 66/2/21 67/3/21
f 65/1/21 67/3/21 68/4/21
f 69/1/22 70/2/22 71/3/22
f 69/1/22 71/3/22 72/4/22
f 73/1/23 74/2/23 75/3/23
f 73/1/23 75/3/23 76/4/23
f 77/1/24 78/2/24 79/3/24
f 77/1/24 79/3/24 80/4/24
f 81/1/25 82/2/25 71/3/25
f 81/1/25 71/3/25 76/4/25
f 73/1/26 70/2/26 83/3/26
f 73/1/26 83/3/26 84/4/26
f 77/1/27 85/2/27 86/3/27
f 77/1/27 86/3/27 87/4/27
f 88/1/25 89/2/25 90/3/25
f 88/1/25 90/3/25 80/4/25
f 91/1/28 85/2/28 90/3/28
f 91/1/28 90/3/28 92/4/28
f 93/1/29 94/2/29 95/3/29
f 93/1/29 95/3/29 96/4/29
f 97/5/30 98/6/30 99/7/30
f 97/5/30 99/7/30 100/8/30
f 101/5/31 102/6/31 103/7/31
f 101/5/31 103/7/31 104/8/31
f 105/5/32 106/6/32 107/7/32
f 105/5/32 107/7/32 108/8/32
f 109/5/33 110/6/33 111/7/33
f 109/5/33 111/7/33 112/8/33
f 113/5/25 114/6/25 103/7/25
f 113/5/25 103/7/25 108/8/25
f 105/5/34 102/6/34 115/7/34
f 105/5/34 115/7/34 116/8/34
f 109/5/35 117/6/35 118/7/35
f 109/5/35 118/7/35 119/8/35
f 120/5/36 121/6/36 122/7/36
f 120/5/36 122/7/36 112/8/36
f 123/5/37 117/6/37 122/7/37
f 123/5/37 122/7/37 124/8/37
f 125/5/38 126/6/38 127/7/38
f 125/5/38 127/7/38 128/8/38
f 129/9/39 130/10/39 131/11/39
f 132/9/40 133/10/40 134/11/40
f 132/9/40 134/11/40 135/12/40
f 136/9/41 137/10/41 138/11/41
f 136/9/41 138/11/41 139/12/41
f 140/9/42 130/10/42 141/11/42
f 140/9/42 141/11/42 142/12/42
f 143/13/25 144/14/25 145/15/25
f 143/13/25 145/15/25 146/16/25
f 143/13/25 146/16/25 147/17/25
f 143/13/25 147/17/25 148/18/25
f 136/9/43 149/10/43 150/11/43
f 136/9/43 150/11/43 151/12/43
f 152/9/44 153/10/44 154/11/44
f 152/9/44 154/11/44 155/12/44
f 156/9/45 133/10/45 157/11/45
f 156/9/45 157/11/45 158/12/45
f 132/9/46 130/10/46 159/11/46
f 132/9/46 159/11/46 160/12/46
f 161/9/47 162/10/47 163/11/47
f 161/9/47 163/11/47 164/12/47
f 165/13/48 166/19/48 167/20/48
f 165/13/48 167/20/48 168/21/48
f 165/13/48 168/21/48 169/22/48
f 170/9/49 171/10/49 172/11/49
f 170/9/49 172/11/49 173/12/49
f 174/9/50 175/10/50 176/11/50
f 174/9/50 176/11/50 177/12/50
f 178/9/51 179/10/51 180/11/51
f 178/9/51 180/11/51 181/12/51
f 182/9/52 130/10/52 183/11/52
f 161/9/53 149/10/53 131/11/53
f 140/9/54 137/10/54 184/11/54
f 140/9/54 184/11/54 185/12/54
f 186/9/55 187/10/55 188/11/55
f 186/9/55 188/11/55 189/12/55
f 156/9/56 162/10/56 190/11/56
f 156/9/56 190/11/56 191/12/56
f 192/5/57 193/6/57 194/7/57
f 192/5/57 194/7/57 195/8/57
f 196/5/58 197/6/58 198/7/58
f 196/5/58 198/7/58 199/8/58
f 200/5/59 201/6/59 202/7/59
f 200/5/59 202/7/59 203/8/59
f 204/5/60 205/6/60 206/7/60
f 204/5/60 206/7/60 207/8/60
f 208/5/25 209/6/25 198/7/25
f 208/5/25 198/7/25 207/8/25
f 196/5/61 205/6/61 210/7/61
f 196/5/61 210/7/61 211/8/61
f 212/5/62 213/6/62 214/7/62
f 212/5/62 214/7/62 215/8/62
f 192/5/63 201/6/63 216/7/63
f 192/5/63 216/7/63 217/8/63
f 200/5/64 193/6/64 218/7/64
f 200/5/64 218/7/64 219/8/64
f 204/5/65 197/6/65 220/7/65
f 204/5/65 220/7/65 221/8/65
f 222/5/66 223/6/66 224/7/66
f 222/5/66 224/7/66 225/8/66
f 226/5/67 227/6/67 228/7/67
f 226/5/67 228/7/67 229/8/67
f 230/5/68 231/6/68 232/7/68
f 230/5/68 232/7/68 225/8/68
f 233/5/69 234/6/69 224/7/69
f 233/5/69 224/7/69 235/8/69
f 236/23/70 237/24/70 238/25/70
f 236/23/70 238/25/70 239/26/70
f 240/23/71 241/24/71 242/25/71
f 240/23/71 242/25/71 243/26/71
f 244/23/72 245/24/72 246/25/72
f 244/23/72 246/25/72 247/26/72
f 248/23/73 249/24/73 250/25/73
f 248/23/73 250/25/73 251/26/73
f 252/23/25 253/24/25 242/25/25
f 252/23/25 242/25/25 251/26/25
f 240/23/74 249/24/74 254/25/74
f 240/23/74 254/25/74 255/26/74
f 256/23/75 257/24/75 258/25/75
f 256/23/75 258/25/75 259/26/75
f 236/23/76 245/24/76 260/25/76
f 236/23/76 260/25/76 261/26/76
f 244/23/77 237/24/77 262/25/77
f 244/23/77 262/25/77 263/26/77
f 248/23/78 241/24/78 264/25/78
f 248/23/78 264/25/78 265/26/78
f 266/23/79 267/24/79 268/25/79
f 266/23/79 268/25/79 269/26/79
f 270/23/80 271/24/80 272/25/80
f 270/23/80 272/25/80 273/26/80
f 274/23/81 275/24/81 276/25/81
f 274/23/81 276/25/81 269/26/81
f 277/23/82 278/24/82 268/25/82
f 277/23/82 268/25/82 279/26/82
f 280/1/83 281/2/83 282/3/83
f 280/1/83 282/3/83 283/4/83
f 284/1/84 285/2/84 286/3/84
f 284/1/84 286/3/84 287/4/84
f 288/1/85 289/2/85 290/3/85
f 288/1/85 290/3/85 291/4/85
f 292/1/86 293/2/86 294/3/86
f 292/1/86 294/3/86 295/4/86
f 296/1/87 297/2/87 286/3/87
f 296/1/87 286/3/87 291/4/87
f 288/1/88 285/2/88 298/3/88
f 288/1/88 298/3/88 299/4/88
f 292/1/89 300/2/89 301/3/89
f 292/1/89 301/3/89 302/4/89
f 303/1/90 304/2/90 305/3/90
f 303/1/90 305/3/90 295/4/90
f 306/1/91 300/2/91 305/3/91
f 306/1/91 305/3/91 307/4/91
f 308/1/92 309/2/92 310/3/92
f 308/1/92 310/3/92 311/4/92
f 312/5/93 313/6/93 314/7/93
f 312/5/93 314/7/93 315/8/93
f 316/5/94 317/6/94 318/7/94
f 316/5/94 318/7/94 319/8/94
f 320/5/95 321/6/95 322/7/95
f 320/5/95 322/7/95 323/8/95
f 324/5/96 325/6/96 326/7/96
f 324/5/96 326/7/96 327/8/96
f 328/5/97 329/6/97 318/7/97
f 328/5/97 318/7/97 323/8/97
f 320/5/98 317/6/98 330/7/98
f 320/5/98 330/7/98 331/8/98
f 324/5/99 332/6/99 333/7/99
f 324/5/99 333/7/99 334/8/99
f 335/5/100 336/6/100 337/7/100
f 335/5/100 337/7/100 327/8/100
f 338/5/101 332/6/101 337/7/101
f 338/5/101 337/7/101 339/8/101
f 340/5/102 341/6/102 342/7/102
f 340/5/102 342/7/102 343/8/102
# Vertices: 343, normals: 102, texture coordinates: 26, faces: 214

