# File generated by ImageToStl.com - Free Image and 3D model conversion tools

mtllib Rock Type2 03.mtl

o obj1
v 0.7002183 -0.20040731 0.16980219
v 0.5782468 -0.0859651 0.3297291
v 0.4442638 -0.21284191 0.33595259
v 0.1802819 -0.50122221 0.32245458
v 0.08950775 -0.64275001 0.28939257
v 0.1304723 -0.67819831 0.23768487
v 0.2504894 -0.63863431 0.18240727
v 0.6839608 -0.23965921 0.15455299
v 0.05960923 0.6125046 -0.05211439
v 0.04471874 0.6543985 -0.01974114
v 0.04570966 0.6641504 -0.00894198
v 0.06109523 0.6806905 0.0194098
v 0.5247165 0.46007549 0.13099582
v 0.6212984 0.3036007 0.04007805
v 0.5160558 0.2658456 -0.07598607
v 0.5160558 0.2658456 -0.07598607
v 0.6212984 0.3036007 0.04007805
v 0.7002183 -0.20040731 0.16980219
v 0.6839608 -0.23965921 0.15455299
v 0.5810829 -0.3132891 0.04404186
v 0.4893198 -0.3002313 -0.06084359
v 0.4865085 0.06027585 -0.09293615
v -0.1786121 0.63967779 0.19937523
v -0.4345765 0.50604419 0.13378472
v -0.5720716 0.06643669 0.2125085
v -0.06923192 0.31623988 0.34530121
v 0.03765487 0.47932839 0.33945242
v -0.6350936 -0.274022 0.01086621
v -0.6351932 -0.2722489 0.00986456
v -0.634057 -0.2737857 0.00916265
v 0.04570966 0.6641504 -0.00894198
v 0.04471874 0.6543985 -0.01974114
v 0.03904783 0.6592397 -0.0147598
v 0.1802819 -0.50122221 0.32245458
v 0.4442638 -0.21284191 0.33595259
v 0.0893107 -0.04917516 0.3453012
v -0.6258866 -0.06150978 0.01189321
v -0.494803 0.3547883 -0.04841856
v -0.4417582 0.3330456 -0.07944946
v -0.4283676 0.1652472 -0.09293602
v -0.5323956 -0.3052355 -0.04995239
v -0.634057 -0.2737857 0.00916265
v -0.6351932 -0.2722489 0.00986456
v -0.5900503 0.01350485 0.1989265
v -0.6258866 -0.06150978 0.01189321
v -0.6351932 -0.2722489 0.00986456
v -0.6350936 -0.274022 0.01086621
v -0.629126 -0.29786 0.05085276
v 0.1304723 -0.67819831 0.23768487
v -0.00925076 -0.70915031 0.12419277
v 0.03225374 -0.6896057 0.03606513
v 0.1904855 -0.64512 0.05354377
v 0.2355901 -0.6347136 0.08529683
v 0.2504894 -0.63863431 0.18240727
v 0.03225374 -0.6896057 0.03606513
v -0.0351212 -0.6168853 -0.02726814
v 0.4243728 -0.3590841 -0.05493583
v 0.1904855 -0.64512 0.05354377
v -0.2426164 -0.61123351 0.22020677
v 0.08950775 -0.64275001 0.28939257
v 0.1802819 -0.50122221 0.32245458
v 0.0893107 -0.04917516 0.3453012
v -0.06923192 0.31623988 0.34530121
v -0.5720716 0.06643669 0.2125085
v -0.5864992 0.02325533 0.2053036
v 0.5782468 -0.0859651 0.3297291
v 0.4475557 0.35631129 0.32771422
v 0.03765487 0.47932839 0.33945242
v -0.06923192 0.31623988 0.34530121
v 0.0893107 -0.04917516 0.3453012
v 0.4442638 -0.21284191 0.33595259
v 0.2355901 -0.6347136 0.08529683
v 0.5810829 -0.3132891 0.04404186
v 0.6839608 -0.23965921 0.15455299
v 0.2504894 -0.63863431 0.18240727
v 0.1904855 -0.64512 0.05354377
v 0.4243728 -0.3590841 -0.05493583
v 0.4893198 -0.3002313 -0.06084359
v 0.5810829 -0.3132891 0.04404186
v 0.2355901 -0.6347136 0.08529683
v -0.0351212 -0.6168853 -0.02726814
v -0.5323956 -0.3052355 -0.04995239
v -0.4283676 0.1652472 -0.09293602
v 0.4865085 0.06027585 -0.09293615
v 0.4893198 -0.3002313 -0.06084359
v 0.4243728 -0.3590841 -0.05493583
v 0.4475557 0.35631129 0.32771422
v 0.5247165 0.46007549 0.13099582
v 0.06109523 0.6806905 0.0194098
v -0.1786121 0.63967779 0.19937523
v 0.6212984 0.3036007 0.04007805
v 0.5247165 0.46007549 0.13099582
v 0.4475557 0.35631129 0.32771422
v 0.5782468 -0.0859651 0.3297291
v 0.03904783 0.6592397 -0.0147598
v 0.04471874 0.6543985 -0.01974114
v 0.05960923 0.6125046 -0.05211439
v -0.4417582 0.3330456 -0.07944946
v -0.494803 0.3547883 -0.04841856
v -0.4610595 0.4491233 0.00335493
v 0.4865085 0.06027585 -0.09293615
v -0.4283676 0.1652472 -0.09293602
v -0.4417582 0.3330456 -0.07944946
v 0.05960923 0.6125046 -0.05211439
v 0.5160558 0.2658456 -0.07598607
v 0.06109523 0.6806905 0.0194098
v 0.04570966 0.6641504 -0.00894198
v 0.03904783 0.6592397 -0.0147598
v -0.4610595 0.4491233 0.00335493
v -0.4345765 0.50604419 0.13378472
v -0.00925076 -0.70915031 0.12419277
v 0.1304723 -0.67819831 0.23768487
v 0.08950775 -0.64275001 0.28939257
v -0.2426164 -0.61123351 0.22020677
v -0.2470853 -0.61228181 0.21646537
v -0.2470853 -0.61228181 0.21646537
v -0.629126 -0.29786 0.05085276
v -0.6350936 -0.274022 0.01086621
v -0.634057 -0.2737857 0.00916265
v -0.5323956 -0.3052355 -0.04995239
v -0.0351212 -0.6168853 -0.02726814
v 0.03225374 -0.6896057 0.03606513
v -0.4345765 0.50604419 0.13378472
v -0.4610595 0.4491233 0.00335493
v -0.494803 0.3547883 -0.04841856
v -0.6258866 -0.06150978 0.01189321
v -0.5900503 0.01350485 0.1989265
v -0.5864992 0.02325533 0.2053036
v -0.5720716 0.06643669 0.2125085
v -0.5864992 0.02325533 0.2053036
v -0.5900503 0.01350485 0.1989265
v -0.629126 -0.29786 0.05085276
vn 0.49266 0.72266 0.48481
vn 0.45383 -0.61978 -0.64024
vn 0.74828 -0.66126 0.05303
vn -0.37081 0.88711 -0.27484
vn -0.78197 -0.52289 0.33928
vn 0.04138 -0.67172 -0.73965
vn 0.00334 0.99875 0.0498
vn -0.49545 -0.86811 -0.03024
vn -0.98424 0.17181 -0.04181
vn 0.27807 -0.08131 0.95711
vn 0.23399 -0.8301 0.50615
vn -0.21141 0.97308 0.09172
vn 0.0329 0.99936 -0.01428
vn 0.6667 -0.13191 0.73356
vn 0.53404 -0.54744 0.64429
vn -0.01018 -0.996 0.08874
vn 0.25795 0.52798 -0.80914
vn 0.84798 0.4659 -0.2527
vn -0.25338 -0.80695 -0.53351
vn 0.00928 -0.99668 -0.08085
vn -0.37829 -0.30466 -0.87412
vn -0.17785 0.45668 0.87167
vn -0.47419 -0.39754 0.78556
vn -0.94973 0.05862 -0.30754
vn -0.57264 0.7659 0.29237
vt 0.20602 0.78189
vt 0.21384 0.77865
vt 0.21707 0.77083
vt 0.21384 0.76302
vt 0.20602 0.75978
vt 0.1982 0.76302
vt 0.19496 0.77083
vt 0.1982 0.77865
vt 0.21466 0.77773
vt 0.2168 0.76837
vt 0.21081 0.76087
vt 0.20122 0.76087
vt 0.19524 0.76837
vt 0.19738 0.77773
vt 0.21653 0.77425
vt 0.21252 0.76189
vt 0.19952 0.76189
vt 0.19551 0.77425
vt 0.19496 0.75978
vt 0.21707 0.75978
vt 0.21707 0.78189
vt 0.21559 0.77636
vt 0.21559 0.76531
vt 0.19645 0.76531
vt 0.19645 0.77636
vt 0.19496 0.78189
usemtl mat0
f 1/1/1 2/2/1 3/3/1
f 1/1/1 3/3/1 4/4/1
f 1/1/1 4/4/1 5/5/1
f 1/1/1 5/5/1 6/6/1
f 1/1/1 6/6/1 7/7/1
f 1/1/1 7/7/1 8/8/1
f 9/1/2 10/9/2 11/10/2
f 9/1/2 11/10/2 12/11/2
f 9/1/2 12/11/2 13/12/2
f 9/1/2 13/12/2 14/13/2
f 9/1/2 14/13/2 15/14/2
f 16/1/3 17/9/3 18/10/3
f 16/1/3 18/10/3 19/11/3
f 16/1/3 19/11/3 20/12/3
f 16/1/3 20/12/3 21/13/3
f 16/1/3 21/13/3 22/14/3
f 23/1/4 24/15/4 25/16/4
f 23/1/4 25/16/4 26/17/4
f 23/1/4 26/17/4 27/18/4
f 28/19/5 29/20/5 30/21/5
f 31/19/6 32/20/6 33/21/6
f 34/19/7 35/20/7 36/21/7
f 37/1/8 38/9/8 39/10/8
f 37/1/8 39/10/8 40/11/8
f 37/1/8 40/11/8 41/12/8
f 37/1/8 41/12/8 42/13/8
f 37/1/8 42/13/8 43/14/8
f 44/1/9 45/15/9 46/16/9
f 44/1/9 46/16/9 47/17/9
f 44/1/9 47/17/9 48/18/9
f 49/1/10 50/22/10 51/23/10
f 49/1/10 51/23/10 52/5/10
f 49/1/10 52/5/10 53/24/10
f 49/1/10 53/24/10 54/25/10
f 55/19/11 56/20/11 57/21/11
f 55/19/11 57/21/11 58/26/11
f 59/1/12 60/9/12 61/10/12
f 59/1/12 61/10/12 62/11/12
f 59/1/12 62/11/12 63/12/12
f 59/1/12 63/12/12 64/13/12
f 59/1/12 64/13/12 65/14/12
f 66/1/13 67/22/13 68/23/13
f 66/1/13 68/23/13 69/5/13
f 66/1/13 69/5/13 70/24/13
f 66/1/13 70/24/13 71/25/13
f 72/19/14 73/20/14 74/21/14
f 72/19/14 74/21/14 75/26/14
f 76/1/15 77/15/15 78/16/15
f 76/1/15 78/16/15 79/17/15
f 76/1/15 79/17/15 80/18/15
f 81/1/16 82/22/16 83/23/16
f 81/1/16 83/23/16 84/5/16
f 81/1/16 84/5/16 85/24/16
f 81/1/16 85/24/16 86/25/16
f 87/1/17 88/15/17 89/16/17
f 87/1/17 89/16/17 90/17/17
f 87/1/17 90/17/17 27/18/17
f 1/1/18 91/15/18 92/16/18
f 1/1/18 92/16/18 93/17/18
f 1/1/18 93/17/18 94/18/18
f 95/1/19 96/22/19 97/23/19
f 95/1/19 97/23/19 98/5/19
f 95/1/19 98/5/19 99/24/19
f 95/1/19 99/24/19 100/25/19
f 101/1/20 102/15/20 103/16/20
f 101/1/20 103/16/20 104/17/20
f 101/1/20 104/17/20 105/18/20
f 23/1/21 106/22/21 107/23/21
f 23/1/21 107/23/21 108/5/21
f 23/1/21 108/5/21 109/24/21
f 23/1/21 109/24/21 110/25/21
f 111/1/22 112/15/22 113/16/22
f 111/1/22 113/16/22 114/17/22
f 111/1/22 114/17/22 115/18/22
f 111/1/23 116/2/23 117/3/23
f 111/1/23 117/3/23 118/4/23
f 111/1/23 118/4/23 119/5/23
f 111/1/23 119/5/23 120/6/23
f 111/1/23 120/6/23 121/7/23
f 111/1/23 121/7/23 122/8/23
f 123/1/24 124/9/24 125/10/24
f 123/1/24 125/10/24 126/11/24
f 123/1/24 126/11/24 127/12/24
f 123/1/24 127/12/24 128/13/24
f 123/1/24 128/13/24 129/14/24
f 59/1/25 130/15/25 131/16/25
f 59/1/25 131/16/25 132/17/25
f 59/1/25 132/17/25 115/18/25
# Vertices: 132, normals: 25, texture coordinates: 26, faces: 88

