# File generated by ImageToStl.com - Free Image and 3D model conversion tools

mtllib Rock Type2 04.mtl

o obj1
v -0.3311911 0.148158 -0.06165116
v -0.3687115 -0.0834605 -0.08002269
v -0.4430007 -0.1506574 0.09257643
v -0.4610654 0.01417021 0.2312749
v -0.4591661 0.02819936 0.2334355
v -0.3370354 -0.2957442 0.06091307
v -0.04770791 -0.3761638 0.0665336
v 0.07506245 -0.34759681 0.28461478
v -0.2072677 -0.23634902 0.39189009
v -0.3176865 -0.22709151 0.31599989
v -0.3834565 -0.269016 0.10757879
v 0.349058 0.1049561 0.09257626
v 0.3485707 0.02409189 0.04774224
v 0.2196299 0.1222825 -0.05752556
v 0.1465914 0.3123618 -0.04360442
v 0.3151679 0.2081228 0.10722361
v 0.03890329 0.3889548 -0.03886602
v -0.3311911 0.148158 -0.06165116
v -0.4591661 0.02819936 0.2334355
v -0.2867205 0.12650678 0.35875331
v 0.07743459 0.38536809 0.20011632
v 0.349058 0.1049561 0.09257626
v 0.3151679 0.2081228 0.10722361
v 0.2167254 0.29294879 0.26119411
v 0.2048684 0.08819756 0.3912255
v 0.287969 -0.1862662 0.05791758
v 0.00202763 -0.3185727 -0.09412092
v 0.2196299 0.1222825 -0.05752556
v 0.3485707 0.02409189 0.04774224
v 0.07743459 0.38536809 0.20011632
v 0.2167254 0.29294879 0.26119411
v 0.3151679 0.2081228 0.10722361
v 0.1465914 0.3123618 -0.04360442
v -0.2867205 0.12650678 0.35875331
v -0.1019378 -0.05284984 0.4758756
v 0.1470708 -0.01524396 0.4560635
v 0.2048684 0.08819756 0.3912255
v 0.2167254 0.29294879 0.26119411
v 0.07743459 0.38536809 0.20011632
v 0.1470708 -0.01524396 0.4560635
v 0.1446525 -0.31026731 0.29385939
v 0.287969 -0.1862662 0.05791758
v 0.3485707 0.02409189 0.04774224
v 0.349058 0.1049561 0.09257626
v 0.2048684 0.08819756 0.3912255
v 0.03890329 0.3889548 -0.03886602
v 0.1465914 0.3123618 -0.04360442
v 0.2196299 0.1222825 -0.05752556
v 0.00202763 -0.3185727 -0.09412092
v -0.0294255 -0.3359041 -0.09581429
v -0.2458816 -0.2775013 -0.09369666
v -0.3687115 -0.0834605 -0.08002269
v -0.3834565 -0.269016 0.10757879
v -0.3176865 -0.22709151 0.31599989
v -0.4610654 0.01417021 0.2312749
v -0.4430007 -0.1506574 0.09257643
v -0.04770791 -0.3761638 0.0665336
v -0.3370354 -0.2957442 0.06091307
v -0.2458816 -0.2775013 -0.09369666
v -0.0294255 -0.3359041 -0.09581429
v 0.1446525 -0.31026731 0.29385939
v 0.07506245 -0.34759681 0.28461478
v -0.04770791 -0.3761638 0.0665336
v -0.0294255 -0.3359041 -0.09581429
v 0.00202763 -0.3185727 -0.09412092
v 0.287969 -0.1862662 0.05791758
v 0.1470708 -0.01524396 0.4560635
v -0.1019378 -0.05284984 0.4758756
v -0.2072677 -0.23634902 0.39189009
v 0.07506245 -0.34759681 0.28461478
v -0.2458816 -0.2775013 -0.09369666
v -0.3370354 -0.2957442 0.06091307
v -0.3834565 -0.269016 0.10757879
v -0.4430007 -0.1506574 0.09257643
v -0.3687115 -0.0834605 -0.08002269
v -0.4591661 0.02819936 0.2334355
v -0.4610654 0.01417021 0.2312749
v -0.3176865 -0.22709151 0.31599989
v -0.2072677 -0.23634902 0.39189009
v -0.1019378 -0.05284984 0.4758756
vn -0.92721 -0.3304 -0.17641
vn -0.26276 0.26929 0.92652
vn 0.73429 -0.59555 -0.32577
vn -0.54694 0.10066 -0.8311
vn 0.87244 0.43385 -0.225
vn 0.52859 -0.82681 0.19228
vn 0.57536 -0.08055 -0.81393
vn -0.01391 0.84371 -0.53662
vn 0.88065 0.41207 0.23377
vn 0.0111 -0.99695 -0.07728
vn -0.85465 0.34733 0.38593
vn -0.25393 -0.25965 0.93172
vn 0.48301 -0.15913 0.86103
vn 0.14115 0.86703 0.47785
vn -0.74994 -0.49405 0.4399
vn -0.56853 0.82117 0.0495
vt 0.23843 0.20436
vt 0.21263 0.2231
vt 0.22248 0.25342
vt 0.25437 0.25342
vt 0.26422 0.2231
vt 0.21494 0.21792
vt 0.21494 0.24504
vt 0.23843 0.2586
vt 0.26191 0.24504
vt 0.26191 0.21792
vt 0.26555 0.2586
vt 0.2113 0.2586
vt 0.2113 0.20436
vt 0.26555 0.20436
vt 0.21925 0.2123
vt 0.2113 0.23148
vt 0.21925 0.25066
vt 0.2576 0.25066
vt 0.26555 0.23148
vt 0.2576 0.2123
usemtl mat0
f 1/1/1 2/2/1 3/3/1
f 1/1/1 3/3/1 4/4/1
f 1/1/1 4/4/1 5/5/1
f 6/1/2 7/6/2 8/7/2
f 6/1/2 8/7/2 9/8/2
f 6/1/2 9/8/2 10/9/2
f 6/1/2 10/9/2 11/10/2
f 12/1/3 13/2/3 14/3/3
f 12/1/3 14/3/3 15/4/3
f 12/1/3 15/4/3 16/5/3
f 17/1/4 18/2/4 19/3/4
f 17/1/4 19/3/4 20/4/4
f 17/1/4 20/4/4 21/5/4
f 22/11/5 23/12/5 24/13/5
f 22/11/5 24/13/5 25/14/5
f 26/11/6 27/12/6 28/13/6
f 26/11/6 28/13/6 29/14/6
f 17/1/7 30/2/7 31/3/7
f 17/1/7 31/3/7 32/4/7
f 17/1/7 32/4/7 33/5/7
f 34/1/8 35/6/8 36/7/8
f 34/1/8 36/7/8 37/8/8
f 34/1/8 37/8/8 38/9/8
f 34/1/8 38/9/8 39/10/8
f 40/1/9 41/6/9 42/7/9
f 40/1/9 42/7/9 43/8/9
f 40/1/9 43/8/9 44/9/9
f 40/1/9 44/9/9 45/10/9
f 1/1/10 46/15/10 47/16/10
f 1/1/10 47/16/10 48/17/10
f 1/1/10 48/17/10 49/8/10
f 1/1/10 49/8/10 50/18/10
f 1/1/10 50/18/10 51/19/10
f 1/1/10 51/19/10 52/20/10
f 53/11/11 54/12/11 55/13/11
f 53/11/11 55/13/11 56/14/11
f 57/11/12 58/12/12 59/13/12
f 57/11/12 59/13/12 60/14/12
f 61/1/13 62/6/13 63/7/13
f 61/1/13 63/7/13 64/8/13
f 61/1/13 64/8/13 65/9/13
f 61/1/13 65/9/13 66/10/13
f 61/1/14 67/2/14 68/3/14
f 61/1/14 68/3/14 69/4/14
f 61/1/14 69/4/14 70/5/14
f 71/1/15 72/2/15 73/3/15
f 71/1/15 73/3/15 74/4/15
f 71/1/15 74/4/15 75/5/15
f 34/1/16 76/6/16 77/7/16
f 34/1/16 77/7/16 78/8/16
f 34/1/16 78/8/16 79/9/16
f 34/1/16 79/9/16 80/10/16
# Vertices: 80, normals: 16, texture coordinates: 20, faces: 52

