# File generated by ImageToStl.com - Free Image and 3D model conversion tools

mtllib Rock Type2 01.mtl

o obj1
v 0.6208296 -0.4397053 -0.07486184
v 0.5642557 -0.1235609 -0.00097656
v 0.6483597 -0.07562531 0.2611541
v 0.7595884 -0.33151752 0.37851439
v 0.763607 -0.35092412 0.37545658
v 0.4398365 0.07133834 0.2743474
v 0.02151519 0.03765784 0.3016308
v -0.1074979 -0.14380943 0.57517529
v 0.3260577 -0.19833813 0.68550089
v 0.4691262 -0.12832823 0.58552369
v 0.5176485 0.0398749 0.3277417
v -0.2836918 -0.76016321 0.11678397
v -0.3237213 -0.6398402 0.09065756
v -0.1188043 -0.6612173 -0.08478596
v 0.06480908 -0.87261649 -0.14201974
v -0.1909753 -0.8804398 0.09491922
v 0.2421944 -0.92158719 -0.16251904
v 0.6208296 -0.4397053 -0.07486184
v 0.763607 -0.35092412 0.37545658
v 0.5916679 -0.60493042 0.49362517
v 0.2120277 -1.03255601 0.15637255
v -0.2836918 -0.76016321 0.11678397
v -0.1909753 -0.8804398 0.09491922
v -0.00811422 -1.00509301 0.26988686
v -0.07259422 -0.79526182 0.52957467
v -0.33751 -0.35155651 0.19490408
v -0.03333449 0.00816941 0.06063288
v -0.1188043 -0.6612173 -0.08478596
v -0.3237213 -0.6398402 0.09065756
v 0.2120277 -1.03255601 0.15637255
v -0.00811422 -1.00509301 0.26988686
v -0.1909753 -0.8804398 0.09491922
v 0.06480908 -0.87261649 -0.14201974
v 0.5916679 -0.60493042 0.49362517
v 0.2774147 -0.51186533 0.71610978
v -0.03674519 -0.66516603 0.66209657
v -0.07259422 -0.79526182 0.52957467
v -0.00811422 -1.00509301 0.26988686
v 0.2120277 -1.03255601 0.15637255
v -0.03674519 -0.66516603 0.66209657
v -0.1818138 -0.22644882 0.56863489
v -0.33751 -0.35155651 0.19490408
v -0.3237213 -0.6398402 0.09065756
v -0.2836918 -0.76016321 0.11678397
v -0.07259422 -0.79526182 0.52957467
v 0.2421944 -0.92158719 -0.16251904
v 0.06480908 -0.87261649 -0.14201974
v -0.1188043 -0.6612173 -0.08478596
v -0.03333449 0.00816941 0.06063288
v 0.00028042 0.04508125 0.06709975
v 0.3130395 0.06990766 0.05586898
v 0.5642557 -0.1235609 -0.00097656
v 0.5176485 0.0398749 0.3277417
v 0.4691262 -0.12832823 0.58552369
v 0.7595884 -0.33151752 0.37851439
v 0.6483597 -0.07562531 0.2611541
v 0.02151519 0.03765784 0.3016308
v 0.4398365 0.07133834 0.2743474
v 0.3130395 0.06990766 0.05586898
v 0.00028042 0.04508125 0.06709975
v -0.1818138 -0.22644882 0.56863489
v -0.1074979 -0.14380943 0.57517529
v 0.02151519 0.03765784 0.3016308
v 0.00028042 0.04508125 0.06709975
v -0.03333449 0.00816941 0.06063288
v -0.33751 -0.35155651 0.19490408
v -0.03674519 -0.66516603 0.66209657
v 0.2774147 -0.51186533 0.71610978
v 0.3260577 -0.19833813 0.68550089
v -0.1074979 -0.14380943 0.57517529
v 0.3130395 0.06990766 0.05586898
v 0.4398365 0.07133834 0.2743474
v 0.5176485 0.0398749 0.3277417
v 0.6483597 -0.07562531 0.2611541
v 0.5642557 -0.1235609 -0.00097656
v 0.763607 -0.35092412 0.37545658
v 0.7595884 -0.33151752 0.37851439
v 0.4691262 -0.12832823 0.58552369
v 0.3260577 -0.19833813 0.68550089
v 0.2774147 -0.51186533 0.71610978
v -0.2451803 -0.26843721 0.12395469
v -0.3276556 -0.3826474 -0.06458242
v -0.496105 -0.29428989 -0.12493611
v -0.5394505 -0.1272361 0.00524032
v -0.535306 -0.1196029 0.0166267
v -0.5526375 -0.46471339 -0.15720572
v -0.6442803 -0.7096104 -0.00943485
v -0.8432813 -0.68392921 0.14283807
v -0.837558 -0.3772044 0.04546521
v -0.7478416 -0.3280508 -0.04155309
v -0.5732438 -0.39684049 -0.16116212
v -0.5177475 -0.69956733 0.60168417
v -0.5151479 -0.76492402 0.53633047
v -0.356198 -0.66483702 0.49087797
v -0.269469 -0.49933943 0.57301928
v -0.4778731 -0.61066293 0.65180897
v -0.2201669 -0.37855802 0.55141218
v -0.2451803 -0.26843721 0.12395469
v -0.535306 -0.1196029 0.0166267
v -0.6302163 -0.12898231 0.23112719
v -0.4373903 -0.30352493 0.62753199
v -0.5177475 -0.69956733 0.60168417
v -0.4778731 -0.61066293 0.65180897
v -0.5568923 -0.42673133 0.67457678
v -0.7613638 -0.47893242 0.55441798
v -0.6089252 -0.83850922 0.35243446
v -0.4863641 -0.7811723 0.02982899
v -0.356198 -0.66483702 0.49087797
v -0.5151479 -0.76492402 0.53633047
v -0.4373903 -0.30352493 0.62753199
v -0.5568923 -0.42673133 0.67457678
v -0.4778731 -0.61066293 0.65180897
v -0.269469 -0.49933943 0.57301928
v -0.6302163 -0.12898231 0.23112719
v -0.8460415 -0.30916091 0.26253209
v -0.8549186 -0.46961482 0.45743658
v -0.7613638 -0.47893242 0.55441798
v -0.5568923 -0.42673133 0.67457678
v -0.4373903 -0.30352493 0.62753199
v -0.8549186 -0.46961482 0.45743658
v -0.846519 -0.70702051 0.21885147
v -0.6089252 -0.83850922 0.35243446
v -0.5151479 -0.76492402 0.53633047
v -0.5177475 -0.69956733 0.60168417
v -0.7613638 -0.47893242 0.55441798
v -0.2201669 -0.37855802 0.55141218
v -0.269469 -0.49933943 0.57301928
v -0.356198 -0.66483702 0.49087797
v -0.4863641 -0.7811723 0.02982899
v -0.4872812 -0.7699176 -0.00430361
v -0.425046 -0.58495929 -0.11469283
v -0.3276556 -0.3826474 -0.06458242
v -0.5732438 -0.39684049 -0.16116212
v -0.7478416 -0.3280508 -0.04155309
v -0.5394505 -0.1272361 0.00524032
v -0.496105 -0.29428989 -0.12493611
v -0.6442803 -0.7096104 -0.00943485
v -0.5526375 -0.46471339 -0.15720572
v -0.425046 -0.58495929 -0.11469283
v -0.4872812 -0.7699176 -0.00430361
v -0.846519 -0.70702051 0.21885147
v -0.8432813 -0.68392921 0.14283807
v -0.6442803 -0.7096104 -0.00943485
v -0.4872812 -0.7699176 -0.00430361
v -0.4863641 -0.7811723 0.02982899
v -0.6089252 -0.83850922 0.35243446
v -0.8549186 -0.46961482 0.45743658
v -0.8460415 -0.30916091 0.26253209
v -0.837558 -0.3772044 0.04546521
v -0.8432813 -0.68392921 0.14283807
v -0.425046 -0.58495929 -0.11469283
v -0.5526375 -0.46471339 -0.15720572
v -0.5732438 -0.39684049 -0.16116212
v -0.496105 -0.29428989 -0.12493611
v -0.3276556 -0.3826474 -0.06458242
v -0.535306 -0.1196029 0.0166267
v -0.5394505 -0.1272361 0.00524032
v -0.7478416 -0.3280508 -0.04155309
v -0.837558 -0.3772044 0.04546521
v -0.8460415 -0.30916091 0.26253209
v -0.1153486 -0.3819757 -0.10391732
v -0.4456601 -0.32384061 0.18911429
v -0.6028252 0.01446776 0.1303433
v -0.4110695 0.20004661 -0.17970549
v -0.3914237 0.19841841 -0.19830109
v -0.6225523 0.0271611 0.4747648
v -0.2894416 0.10084206 0.9293366
v -0.03562384 0.50379746 0.94939662
v -0.3018831 0.62620768 0.41546823
v -0.4674636 0.47100979 0.30107452
v -0.6511955 0.09730831 0.363717
v 0.8644085 -0.00917467 0.7022839
v 0.7607421 -0.05839882 0.834361
v 0.6668816 -0.30649943 0.58261489
v 0.7847139 -0.36711321 0.21982648
v 0.9381201 -0.02840222 0.5094355
v 0.7166967 -0.4012643 -0.01854576
v -0.1153486 -0.3819757 -0.10391732
v -0.3914237 0.19841841 -0.19830109
v 0.0006741 0.40663981 -0.18307918
v 0.812412 0.04479545 -0.06031453
v 0.8644085 -0.00917467 0.7022839
v 0.9381201 -0.02840222 0.5094355
v 0.9203215 0.21011409 0.21253131
v 0.6861349 0.53337598 0.44018932
v 0.426503 0.04116631 1.058745
v -0.1775772 -0.21401624 0.96815579
v 0.6668816 -0.30649943 0.58261489
v 0.7607421 -0.05839882 0.834361
v 0.812412 0.04479545 -0.06031453
v 0.9203215 0.21011409 0.21253131
v 0.9381201 -0.02840222 0.5094355
v 0.7847139 -0.36711321 0.21982648
v 0.0006741 0.40663981 -0.18307918
v 0.08376759 0.71599449 0.24584493
v 0.4913109 0.68973938 0.49428293
v 0.6861349 0.53337598 0.44018932
v 0.9203215 0.21011409 0.21253131
v 0.812412 0.04479545 -0.06031453
v 0.4913109 0.68973938 0.49428293
v 0.1123999 0.51260596 0.97486492
v 0.426503 0.04116631 1.058745
v 0.7607421 -0.05839882 0.834361
v 0.8644085 -0.00917467 0.7022839
v 0.6861349 0.53337598 0.44018932
v 0.7166967 -0.4012643 -0.01854576
v 0.7847139 -0.36711321 0.21982648
v 0.6668816 -0.30649943 0.58261489
v -0.1775772 -0.21401624 0.96815579
v -0.2445709 -0.21322644 0.95633849
v -0.4947087 -0.25596413 0.61632409
v -0.4456601 -0.32384061 0.18911429
v -0.6511955 0.09730831 0.363717
v -0.4674636 0.47100979 0.30107452
v -0.4110695 0.20004661 -0.17970549
v -0.6028252 0.01446776 0.1303433
v -0.2894416 0.10084206 0.9293366
v -0.6225523 0.0271611 0.4747648
v -0.4947087 -0.25596413 0.61632409
v -0.2445709 -0.21322644 0.95633849
v 0.1123999 0.51260596 0.97486492
v -0.03562384 0.50379746 0.94939662
v -0.2894416 0.10084206 0.9293366
v -0.2445709 -0.21322644 0.95633849
v -0.1775772 -0.21401624 0.96815579
v 0.426503 0.04116631 1.058745
v 0.4913109 0.68973938 0.49428293
v 0.08376759 0.71599449 0.24584493
v -0.3018831 0.62620768 0.41546823
v -0.03562384 0.50379746 0.94939662
v -0.4947087 -0.25596413 0.61632409
v -0.6225523 0.0271611 0.4747648
v -0.6511955 0.09730831 0.363717
v -0.6028252 0.01446776 0.1303433
v -0.4456601 -0.32384061 0.18911429
v -0.3914237 0.19841841 -0.19830109
v -0.4110695 0.20004661 -0.17970549
v -0.4674636 0.47100979 0.30107452
v -0.3018831 0.62620768 0.41546823
v 0.08376759 0.71599449 0.24584493
vn 0.9103 -0.33623 -0.24148
vn -0.03227 0.54191 -0.83982
vn -0.62836 -0.69018 0.35891
vn 0.79093 -0.13302 0.59727
vn -0.72236 0.31716 0.61449
vn -0.61645 -0.74944 -0.24152
vn -0.28656 -0.33894 0.89611
vn 0.24246 0.64545 0.7243
vn -0.87935 0.43281 0.19857
vn -0.05233 -0.97446 -0.21838
vn 0.70601 0.4754 -0.52492
vn -0.07769 0.03857 -0.99623
vn -0.74412 0.08833 -0.66218
vn -0.22917 0.9647 -0.12974
vn 0.53342 -0.31472 -0.78512
vn 0.57591 0.81745 0.00955
vn 0.52988 -0.5968 -0.60254
vn -0.60998 -0.75848 0.22941
vn 0.54081 0.60545 0.58391
vn 0.38396 0.20922 -0.89933
vn -0.42873 0.85559 0.2901
vn 0.54373 0.05776 0.83727
vn 0.33963 0.94009 -0.02954
vn -0.49172 0.53997 -0.68311
vn -0.6192 0.54281 0.56741
vn 0.90459 -0.15521 0.39702
vn -0.3302 -0.78418 -0.52539
vn -0.15151 -0.87038 0.46849
vn -0.33532 -0.28688 0.89736
vn -0.99915 -0.04083 -0.00568
vn 0.36261 -0.93027 -0.05586
vn -0.64151 -0.25217 -0.72448
vn -0.64433 -0.6447 0.41133
vn -0.75331 0.47898 -0.45066
vn 0.71706 0.33502 0.61122
vn 0.0988 -0.98858 0.11377
vn 0.86037 0.28685 -0.42128
vn 0.21366 0.64415 0.73445
vn 0.94499 -0.23741 0.22501
vn 0.40228 -0.58553 -0.70379
vn 0.5803 0.64215 -0.50089
vn -0.03854 0.15248 0.98755
vn -0.87177 -0.31414 -0.37595
vn -0.80011 0.59654 0.06302
vn -0.17272 0.98315 -0.05985
vn -0.10358 0.27105 -0.95697
vn -0.90391 -0.03607 0.42619
vn -0.39518 -0.48576 -0.77966
vt 0.23843 0.77347
vt 0.25194 0.76365
vt 0.24678 0.74777
vt 0.23008 0.74777
vt 0.22491 0.76365
vt 0.25073 0.76636
vt 0.25073 0.75216
vt 0.23843 0.74505
vt 0.22612 0.75216
vt 0.22612 0.76636
vt 0.22422 0.74505
vt 0.25263 0.74505
vt 0.25263 0.77347
vt 0.22422 0.77347
vt 0.24847 0.7693
vt 0.25263 0.75926
vt 0.24847 0.74921
vt 0.22838 0.74921
vt 0.22422 0.75926
vt 0.22838 0.7693
vt 0.76389 0.25958
vt 0.7774 0.24976
vt 0.77224 0.23388
vt 0.75554 0.23388
vt 0.75038 0.24976
vt 0.77619 0.25247
vt 0.77619 0.23827
vt 0.76389 0.23116
vt 0.75159 0.23827
vt 0.75159 0.25247
vt 0.74968 0.23116
vt 0.7781 0.23116
vt 0.7781 0.25958
vt 0.74968 0.25958
vt 0.77393 0.25542
vt 0.7781 0.24537
vt 0.77393 0.23532
vt 0.75384 0.23532
vt 0.74968 0.24537
vt 0.75384 0.25542
vt 0.22222 0.25032
vt 0.23573 0.2405
vt 0.23057 0.22462
vt 0.21387 0.22462
vt 0.20871 0.2405
vt 0.23453 0.24321
vt 0.23453 0.22901
vt 0.22222 0.2219
vt 0.20992 0.22901
vt 0.20992 0.24321
vt 0.20802 0.2219
vt 0.23643 0.2219
vt 0.23643 0.25032
vt 0.20802 0.25032
vt 0.23227 0.24616
vt 0.23643 0.23611
vt 0.23227 0.22607
vt 0.21218 0.22607
vt 0.20802 0.23611
vt 0.21218 0.24616
usemtl mat0
f 1/1/1 2/2/1 3/3/1
f 1/1/1 3/3/1 4/4/1
f 1/1/1 4/4/1 5/5/1
f 6/1/2 7/6/2 8/7/2
f 6/1/2 8/7/2 9/8/2
f 6/1/2 9/8/2 10/9/2
f 6/1/2 10/9/2 11/10/2
f 12/1/3 13/2/3 14/3/3
f 12/1/3 14/3/3 15/4/3
f 12/1/3 15/4/3 16/5/3
f 17/1/4 18/2/4 19/3/4
f 17/1/4 19/3/4 20/4/4
f 17/1/4 20/4/4 21/5/4
f 22/11/5 23/12/5 24/13/5
f 22/11/5 24/13/5 25/14/5
f 26/11/6 27/12/6 28/13/6
f 26/11/6 28/13/6 29/14/6
f 17/1/7 30/2/7 31/3/7
f 17/1/7 31/3/7 32/4/7
f 17/1/7 32/4/7 33/5/7
f 34/1/8 35/6/8 36/7/8
f 34/1/8 36/7/8 37/8/8
f 34/1/8 37/8/8 38/9/8
f 34/1/8 38/9/8 39/10/8
f 40/1/9 41/6/9 42/7/9
f 40/1/9 42/7/9 43/8/9
f 40/1/9 43/8/9 44/9/9
f 40/1/9 44/9/9 45/10/9
f 1/1/10 46/15/10 47/16/10
f 1/1/10 47/16/10 48/17/10
f 1/1/10 48/17/10 49/8/10
f 1/1/10 49/8/10 50/18/10
f 1/1/10 50/18/10 51/19/10
f 1/1/10 51/19/10 52/20/10
f 53/11/11 54/12/11 55/13/11
f 53/11/11 55/13/11 56/14/11
f 57/11/12 58/12/12 59/13/12
f 57/11/12 59/13/12 60/14/12
f 61/1/13 62/6/13 63/7/13
f 61/1/13 63/7/13 64/8/13
f 61/1/13 64/8/13 65/9/13
f 61/1/13 65/9/13 66/10/13
f 61/1/14 67/2/14 68/3/14
f 61/1/14 68/3/14 69/4/14
f 61/1/14 69/4/14 70/5/14
f 71/1/15 72/2/15 73/3/15
f 71/1/15 73/3/15 74/4/15
f 71/1/15 74/4/15 75/5/15
f 34/1/16 76/6/16 77/7/16
f 34/1/16 77/7/16 78/8/16
f 34/1/16 78/8/16 79/9/16
f 34/1/16 79/9/16 80/10/16
f 81/21/17 82/22/17 83/23/17
f 81/21/17 83/23/17 84/24/17
f 81/21/17 84/24/17 85/25/17
f 86/21/18 87/26/18 88/27/18
f 86/21/18 88/27/18 89/28/18
f 86/21/18 89/28/18 90/29/18
f 86/21/18 90/29/18 91/30/18
f 92/21/19 93/22/19 94/23/19
f 92/21/19 94/23/19 95/24/19
f 92/21/19 95/24/19 96/25/19
f 97/21/20 98/22/20 99/23/20
f 97/21/20 99/23/20 100/24/20
f 97/21/20 100/24/20 101/25/20
f 102/31/21 103/32/21 104/33/21
f 102/31/21 104/33/21 105/34/21
f 106/31/22 107/32/22 108/33/22
f 106/31/22 108/33/22 109/34/22
f 97/21/23 110/22/23 111/23/23
f 97/21/23 111/23/23 112/24/23
f 97/21/23 112/24/23 113/25/23
f 114/21/24 115/26/24 116/27/24
f 114/21/24 116/27/24 117/28/24
f 114/21/24 117/28/24 118/29/24
f 114/21/24 118/29/24 119/30/24
f 120/21/25 121/26/25 122/27/25
f 120/21/25 122/27/25 123/28/25
f 120/21/25 123/28/25 124/29/25
f 120/21/25 124/29/25 125/30/25
f 81/21/26 126/35/26 127/36/26
f 81/21/26 127/36/26 128/37/26
f 81/21/26 128/37/26 129/28/26
f 81/21/26 129/28/26 130/38/26
f 81/21/26 130/38/26 131/39/26
f 81/21/26 131/39/26 132/40/26
f 133/31/27 134/32/27 135/33/27
f 133/31/27 135/33/27 136/34/27
f 137/31/28 138/32/28 139/33/28
f 137/31/28 139/33/28 140/34/28
f 141/21/29 142/26/29 143/27/29
f 141/21/29 143/27/29 144/28/29
f 141/21/29 144/28/29 145/29/29
f 141/21/29 145/29/29 146/30/29
f 141/21/30 147/22/30 148/23/30
f 141/21/30 148/23/30 149/24/30
f 141/21/30 149/24/30 150/25/30
f 151/21/31 152/22/31 153/23/31
f 151/21/31 153/23/31 154/24/31
f 151/21/31 154/24/31 155/25/31
f 114/21/32 156/26/32 157/27/32
f 114/21/32 157/27/32 158/28/32
f 114/21/32 158/28/32 159/29/32
f 114/21/32 159/29/32 160/30/32
f 161/41/33 162/42/33 163/43/33
f 161/41/33 163/43/33 164/44/33
f 161/41/33 164/44/33 165/45/33
f 166/41/34 167/46/34 168/47/34
f 166/41/34 168/47/34 169/48/34
f 166/41/34 169/48/34 170/49/34
f 166/41/34 170/49/34 171/50/34
f 172/41/35 173/42/35 174/43/35
f 172/41/35 174/43/35 175/44/35
f 172/41/35 175/44/35 176/45/35
f 177/41/36 178/42/36 179/43/36
f 177/41/36 179/43/36 180/44/36
f 177/41/36 180/44/36 181/45/36
f 182/51/37 183/52/37 184/53/37
f 182/51/37 184/53/37 185/54/37
f 186/51/38 187/52/38 188/53/38
f 186/51/38 188/53/38 189/54/38
f 177/41/39 190/42/39 191/43/39
f 177/41/39 191/43/39 192/44/39
f 177/41/39 192/44/39 193/45/39
f 194/41/40 195/46/40 196/47/40
f 194/41/40 196/47/40 197/48/40
f 194/41/40 197/48/40 198/49/40
f 194/41/40 198/49/40 199/50/40
f 200/41/41 201/46/41 202/47/41
f 200/41/41 202/47/41 203/48/41
f 200/41/41 203/48/41 204/49/41
f 200/41/41 204/49/41 205/50/41
f 161/41/42 206/55/42 207/56/42
f 161/41/42 207/56/42 208/57/42
f 161/41/42 208/57/42 209/48/42
f 161/41/42 209/48/42 210/58/42
f 161/41/42 210/58/42 211/59/42
f 161/41/42 211/59/42 212/60/42
f 213/51/43 214/52/43 215/53/43
f 213/51/43 215/53/43 216/54/43
f 217/51/44 218/52/44 219/53/44
f 217/51/44 219/53/44 220/54/44
f 221/41/45 222/46/45 223/47/45
f 221/41/45 223/47/45 224/48/45
f 221/41/45 224/48/45 225/49/45
f 221/41/45 225/49/45 226/50/45
f 221/41/46 227/42/46 228/43/46
f 221/41/46 228/43/46 229/44/46
f 221/41/46 229/44/46 230/45/46
f 231/41/47 232/42/47 233/43/47
f 231/41/47 233/43/47 234/44/47
f 231/41/47 234/44/47 235/45/47
f 194/41/48 236/46/48 237/47/48
f 194/41/48 237/47/48 238/48/48
f 194/41/48 238/48/48 239/49/48
f 194/41/48 239/49/48 240/50/48
# Vertices: 240, normals: 48, texture coordinates: 60, faces: 156

