# File generated by ImageToStl.com - Free Image and 3D model conversion tools

mtllib Rock Type6 02.mtl

o obj1
v 0.6555441 0.6963426 0.02189674
v 0.6636331 0.1098234 0.02189671
v -0.2213625 0.180322 0.02189672
v -0.1483597 0.908007 0.0218967
v 0.6636331 0.1098234 0.02189671
v 0.4085944 -0.4584434 0.02189669
v -0.3953093 -0.2467789 0.0218967
v -0.2213625 0.180322 0.02189672
v 0.3990254 -0.43312043 0.57892928
v 0.6442288 0.11323198 0.4184722
v 0.6842153 0.10620786 0.9082837
v 0.4187444 -0.48530364 0.90828368
v 0.6364519 0.67713298 0.41847223
v -0.1364506 0.88063488 0.41847224
v -0.1609917 0.93704086 0.90828374
v 0.6757955 0.71671856 0.90828373
v 0.4085944 -0.4584434 0.02189669
v 0.6442288 0.11323198 0.4184722
v 0.3990254 -0.43312043 0.57892928
v 0.3990254 -0.43312043 0.57892928
v -0.3738769 -0.22961863 0.57892929
v -0.9780887 -0.49049112 0.46221158
v 0.3732577 -0.84629482 0.46221156
v 0.6555441 0.6963426 0.02189674
v 0.6364519 0.67713298 0.41847223
v 0.6442288 0.11323198 0.4184722
v -0.1483597 0.908007 0.0218967
v -0.2213625 0.180322 0.02189672
v -0.2066382 0.18101187 0.57892931
v -0.1364506 0.88063488 0.41847224
v -0.3953093 -0.2467789 0.0218967
v 0.4085944 -0.4584434 0.02189669
v 0.3899882 -0.89056961 0.27260806
v -1.015561 -0.52049451 0.27260808
v -0.1483597 0.908007 0.0218967
v -0.1364506 0.88063488 0.41847224
v 0.6364519 0.67713298 0.41847223
v -0.2369806 0.17959016 0.90828371
v -0.4180427 -0.26498124 0.90828369
v -0.3357513 -0.19909205 1.04471799
v -0.1804453 0.18223915 1.04471801
v 0.4187444 -0.48530364 0.90828368
v 0.6842153 0.10620786 0.9082837
v 0.6097108 0.11929545 1.04471801
v 0.3820031 -0.38807365 1.04471798
v -0.2066382 0.18101187 0.57892931
v -0.3738769 -0.22961863 0.57892929
v -0.4180427 -0.26498124 0.90828369
v -0.2369806 0.17959016 0.90828371
v 0.6442288 0.11323198 0.4184722
v 0.6364519 0.67713298 0.41847223
v 0.6757955 0.71671856 0.90828373
v 0.6842153 0.10620786 0.9082837
v -0.1364506 0.88063488 0.41847224
v -0.2066382 0.18101187 0.57892931
v -0.2369806 0.17959016 0.90828371
v -0.1609917 0.93704086 0.90828374
v -0.3738769 -0.22961863 0.57892929
v 0.3990254 -0.43312043 0.57892928
v 0.4187444 -0.48530364 0.90828368
v -0.4180427 -0.26498124 0.90828369
v 0.6024887 0.64296115 1.04471803
v -0.1152656 0.83194275 1.04471804
v -0.1804453 0.18223915 1.04471801
v 0.6097108 0.11929545 1.04471801
v 0.6097108 0.11929545 1.04471801
v -0.1804453 0.18223915 1.04471801
v 0.6842153 0.10620786 0.9082837
v 0.6757955 0.71671856 0.90828373
v 0.6024887 0.64296115 1.04471803
v -0.1609917 0.93704086 0.90828374
v -0.2369806 0.17959016 0.90828371
v -0.1152656 0.83194275 1.04471804
v -0.4180427 -0.26498124 0.90828369
v 0.4187444 -0.48530364 0.90828368
v 0.3820031 -0.38807365 1.04471798
v -0.3357513 -0.19909205 1.04471799
v 0.6757955 0.71671856 0.90828373
v -0.1609917 0.93704086 0.90828374
v -0.1152656 0.83194275 1.04471804
v 0.6024887 0.64296115 1.04471803
v 0.3878692 -0.49537202 0.37352458
v 0.3693337 -0.31217932 0.37479539
v 0.377543 -0.3405495 0.025479
v 0.3897442 -0.461138 0.02464244
v 0.3693337 -0.31217932 0.37479539
v 0.5520058 -0.29360062 0.36099479
v 0.4977887 -0.32832 0.0163946
v 0.377543 -0.3405495 0.025479
v 0.5520058 -0.29360062 0.36099479
v 0.5705415 -0.47679332 0.35972398
v 0.50999 -0.4489083 0.01555804
v 0.4977887 -0.32832 0.0163946
v 0.5705415 -0.47679332 0.35972398
v 0.3878692 -0.49537202 0.37352458
v 0.3897442 -0.461138 0.02464244
v 0.50999 -0.4489083 0.01555804
v 0.3897442 -0.461138 0.02464244
v 0.377543 -0.3405495 0.025479
v 0.4425433 -0.30500592 0.46743349
v 0.5664256 -0.29240642 0.45807429
v 0.5789958 -0.41664172 0.45721258
v 0.5664256 -0.29240642 0.45807429
v 0.4551135 -0.42924112 0.46657168
v 0.5664256 -0.29240642 0.45807429
v 0.5789958 -0.41664172 0.45721258
v 0.4551135 -0.42924112 0.46657168
v 0.4425433 -0.30500592 0.46743349
v 0.5789958 -0.41664172 0.45721258
v -0.4740761 0.7935338 -0.00126472
v -0.1216175 0.743362 -0.00126472
v -0.1106876 0.2683463 -0.00126468
v -0.3727843 0.2963132 -0.00126468
v -0.7840011 0.2212843 -0.00126468
v -0.794931 0.6963 -0.00126472
v -0.1216175 0.743362 -0.00126472
v -0.4740761 0.7935338 -0.00126472
v -0.479115 0.84063619 0.32673444
v -0.06947708 0.78232519 0.32673443
v -0.794931 0.6963 -0.00126472
v -0.7840011 0.2212843 -0.00126468
v -0.8393189 0.17555089 0.32673441
v -0.8520222 0.72762819 0.32673443
v -0.3613906 0.26275169 0.32673441
v -0.05677396 0.23024769 0.32673441
v -0.1117169 0.26907378 0.43245311
v -0.3730018 0.29695398 0.43245311
v -0.06947708 0.78232519 0.32673443
v -0.479115 0.84063619 0.32673444
v -0.4739798 0.79263458 0.43245313
v -0.122613 0.74261828 0.43245313
v -0.3727843 0.2963132 -0.00126468
v -0.1106876 0.2683463 -0.00126468
v -0.05677396 0.23024769 0.32673441
v -0.3613906 0.26275169 0.32673441
v -0.4740761 0.7935338 -0.00126472
v -0.794931 0.6963 -0.00126472
v -0.8520222 0.72762819 0.32673443
v -0.479115 0.84063619 0.32673444
v -0.7840011 0.2212843 -0.00126468
v -0.3727843 0.2963132 -0.00126468
v -0.3613906 0.26275169 0.32673441
v -0.8393189 0.17555089 0.32673441
v -0.1106876 0.2683463 -0.00126468
v -0.1216175 0.743362 -0.00126472
v -0.06947708 0.78232519 0.32673443
v -0.05677396 0.23024769 0.32673441
v -0.793841 0.69570198 0.43245313
v -0.7829448 0.22215738 0.43245311
v -0.3730018 0.29695398 0.43245311
v -0.4739798 0.79263458 0.43245313
v -0.4739798 0.79263458 0.43245313
v -0.3730018 0.29695398 0.43245311
v -0.479115 0.84063619 0.32673444
v -0.8520222 0.72762819 0.32673443
v -0.793841 0.69570198 0.43245313
v -0.8393189 0.17555089 0.32673441
v -0.3613906 0.26275169 0.32673441
v -0.7829448 0.22215738 0.43245311
v -0.05677396 0.23024769 0.32673441
v -0.06947708 0.78232519 0.32673443
v -0.122613 0.74261828 0.43245313
v -0.1117169 0.26907378 0.43245311
v -0.8520222 0.72762819 0.32673443
v -0.8393189 0.17555089 0.32673441
v -0.7829448 0.22215738 0.43245311
v -0.793841 0.69570198 0.43245313
v -0.7114315 0.22625099 0.27260811
v -1.015561 -0.52049451 0.27260808
v -0.6856876 0.22745718 0.46221161
v -1.015561 -0.52049451 0.27260808
v 0.3899882 -0.89056961 0.27260806
v 0.3732577 -0.84629482 0.46221156
v -0.9780887 -0.49049112 0.46221158
v -0.2066382 0.18101187 0.57892931
v -0.2213625 0.180322 0.02189672
v -0.7114315 0.22625099 0.27260811
v 0.4085944 -0.4584434 0.02189669
v 0.3990254 -0.43312043 0.57892928
v 0.3899882 -0.89056961 0.27260806
v -0.2213625 0.180322 0.02189672
v -0.3953093 -0.2467789 0.0218967
v -1.015561 -0.52049451 0.27260808
v -0.7114315 0.22625099 0.27260811
v -0.3738769 -0.22961863 0.57892929
v -0.2066382 0.18101187 0.57892931
v -0.6856876 0.22745718 0.46221161
v 0.4961594 -0.30200672 0.38818859
v 0.5933149 -0.14996052 0.35147969
v 0.4224402 -0.152775 0.04539447
v 0.3584867 -0.2528609 0.06955849
v 0.5933149 -0.14996052 0.35147969
v 0.719029 -0.25157801 0.26330609
v 0.5051927 -0.2196658 -0.01264656
v 0.4224402 -0.152775 0.04539447
v 0.719029 -0.25157801 0.26330609
v 0.6218735 -0.40362411 0.30001488
v 0.4412392 -0.3197516 0.01151733
v 0.5051927 -0.2196658 -0.01264656
v 0.6218735 -0.40362411 0.30001488
v 0.4961594 -0.30200672 0.38818859
v 0.3584867 -0.2528609 0.06955849
v 0.4412392 -0.3197516 0.01151733
v 0.3584867 -0.2528609 0.06955849
v 0.4224402 -0.152775 0.04539447
v 0.6883471 -0.19768382 0.40328959
v 0.7736023 -0.26659752 0.34349309
v 0.7077147 -0.36971022 0.36838788
v 0.7736023 -0.26659752 0.34349309
v 0.6224595 -0.30079652 0.42818429
v 0.7736023 -0.26659752 0.34349309
v 0.7077147 -0.36971022 0.36838788
v 0.6224595 -0.30079652 0.42818429
v 0.6883471 -0.19768382 0.40328959
v 0.7077147 -0.36971022 0.36838788
v -0.392996 -0.67148951 0.28000857
v -0.4115315 -0.48829661 0.28127948
v -0.4033223 -0.5166669 -0.06803699
v -0.3911211 -0.6372552 -0.06887349
v -0.4115315 -0.48829661 0.28127948
v -0.2288594 -0.46971791 0.26747878
v -0.2830765 -0.5044373 -0.07712139
v -0.4033223 -0.5166669 -0.06803699
v -0.2288594 -0.46971791 0.26747878
v -0.2103238 -0.65291051 0.26620797
v -0.2708753 -0.6250256 -0.07795789
v -0.2830765 -0.5044373 -0.07712139
v -0.2103238 -0.65291051 0.26620797
v -0.392996 -0.67148951 0.28000857
v -0.3911211 -0.6372552 -0.06887349
v -0.2708753 -0.6250256 -0.07795789
v -0.3911211 -0.6372552 -0.06887349
v -0.4033223 -0.5166669 -0.06803699
v -0.3383219 -0.48112322 0.37391748
v -0.2144396 -0.46852372 0.36455838
v -0.2018694 -0.59275912 0.36369647
v -0.2144396 -0.46852372 0.36455838
v -0.3257517 -0.60535852 0.37305557
v -0.2144396 -0.46852372 0.36455838
v -0.2018694 -0.59275912 0.36369647
v -0.3257517 -0.60535852 0.37305557
v -0.3383219 -0.48112322 0.37391748
v -0.2018694 -0.59275912 0.36369647
v -0.8635212 -0.57861871 0.25052817
v -0.9026561 -0.19183431 0.25179889
v -0.8853235 -0.2517339 -0.09751744
v -0.8595626 -0.5063384 -0.09835394
v -0.9026561 -0.19183431 0.25179889
v -0.5169711 -0.15260811 0.23799829
v -0.6314425 -0.2259131 -0.10660181
v -0.8853235 -0.2517339 -0.09751744
v -0.5169711 -0.15260811 0.23799829
v -0.477836 -0.53939241 0.23672748
v -0.6056814 -0.4805173 -0.10743832
v -0.6314425 -0.2259131 -0.10660181
v -0.477836 -0.53939241 0.23672748
v -0.8635212 -0.57861871 0.25052817
v -0.8595626 -0.5063384 -0.09835394
v -0.6056814 -0.4805173 -0.10743832
v -0.8595626 -0.5063384 -0.09835394
v -0.8853235 -0.2517339 -0.09751744
v -0.748085 -0.17668862 0.34443699
v -0.4865258 -0.15008671 0.33507789
v -0.4599858 -0.41239131 0.33421608
v -0.4865258 -0.15008671 0.33507789
v -0.7215449 -0.43899302 0.34357518
v -0.4865258 -0.15008671 0.33507789
v -0.4599858 -0.41239131 0.33421608
v -0.7215449 -0.43899302 0.34357518
v -0.748085 -0.17668862 0.34443699
v -0.4599858 -0.41239131 0.33421608
v -0.3605324 0.26281717 0.58152111
v -0.4065607 0.43404748 0.53185902
v -0.1980678 0.37625829 0.25602332
v -0.167769 0.26354429 0.28871391
v -0.4065607 0.43404748 0.53185902
v -0.2541141 0.49844237 0.61259352
v -0.09771817 0.41864679 0.30916762
v -0.1980678 0.37625829 0.25602332
v -0.2541141 0.49844237 0.61259352
v -0.2080856 0.32721207 0.66225551
v -0.06741946 0.30593289 0.34185821
v -0.09771817 0.41864679 0.30916762
v -0.2080856 0.32721207 0.66225551
v -0.3605324 0.26281717 0.58152111
v -0.167769 0.26354429 0.28871391
v -0.06741946 0.30593289 0.34185821
v -0.167769 0.26354429 0.28871391
v -0.1980678 0.37625829 0.25602332
v -0.4008272 0.46877987 0.64479132
v -0.2974429 0.51245027 0.69954282
v -0.266228 0.39632747 0.73322212
v -0.2974429 0.51245027 0.69954282
v -0.3696123 0.35265707 0.67847062
v -0.2974429 0.51245027 0.69954282
v -0.266228 0.39632747 0.73322212
v -0.3696123 0.35265707 0.67847062
v -0.4008272 0.46877987 0.64479132
v -0.266228 0.39632747 0.73322212
vn 0 -1 0
vn 0.90298 -0.09608 0.41881
vn 0.25339 -0.09813 -0.96237
vn 0.91374 0.03994 0.40434
vn -0.07033 0.9611 0.26711
vn 0.99872 0.04875 -0.01377
vn -0.99419 0.03065 -0.10319
vn -0.12991 -0.86005 0.49339
vn 0.25417 0.059 -0.96536
vn -0.86675 0.35231 -0.35301
vn 0.80361 0.47343 0.36066
vn -0.92291 -0.0834 -0.37588
vn 0.99661 -0.08116 -0.01374
vn -0.99314 -0.07269 -0.09163
vn -0.25223 -0.13668 0.95797
vn 0 1 0
vn 0 1 -0
vn 0.87809 0.47835 -0.01211
vn -0.92051 0.37965 -0.09235
vn -0.21634 0.5273 0.82167
vn 0.21255 0.55061 -0.80725
vn -0.99482 -0.01521 0.10055
vn -0.10704 -0.08298 -0.99079
vn 0.98125 -0.1645 -0.10042
vn 0.09347 -0.09673 0.99091
vn -0.07526 -0.99716 0.0007
vn -0.10098 0.00276 -0.99489
vn 0.07526 0.99716 -0.0007
vn 0.98395 -0.14739 -0.10058
vn -0.77872 0.62184 0.08311
vn 0.12513 0.51309 0.84916
vn 0.13957 -0.13865 -0.98046
vn -0.9853 -0.16933 0.02267
vn -0.10134 0.29614 0.94975
vn 0.12887 0.40479 -0.90529
vn -0.1056 -0.09759 0.98961
vn -0.28714 -0.14048 -0.94753
vn 0.17848 -0.10629 0.97819
vn 0.98692 -0.15958 -0.02271
vn -0.26461 0.40932 -0.87318
vn 0.17004 0.32019 0.93197
vn 0.89019 0.45512 -0.02048
vn -0.87848 0.47736 0.02021
vn -0.91917 0.12242 -0.37435
vn -0.24951 0.19927 0.94765
vn 0.09384 -0.00761 -0.99556
vn 0.99816 0.03946 0.04614
vn -0.43503 -0.88281 -0.17718
vn -0.22723 0.96944 -0.09254
vn -0.72551 0.39987 -0.56013
vn 0.47995 -0.27559 -0.83289
vn 0.63441 -0.55395 0.53912
vn -0.57104 0.12151 0.81188
vn -0.50544 -0.85496 -0.11655
vn 0.52554 -0.20291 -0.82622
vn 0.50544 0.85496 0.11655
vn 0.64411 -0.53987 0.54192
vn -0.28123 0.87625 -0.39126
vn -0.18748 0.6152 0.76575
vn -0.99482 -0.01521 0.10055
vn -0.10704 -0.08298 -0.99079
vn 0.98125 -0.1645 -0.10042
vn 0.09347 -0.09673 0.99091
vn -0.07526 -0.99716 0.0007
vn -0.10098 0.00276 -0.99488
vn 0.07526 0.99716 -0.0007
vn 0.98395 -0.14739 -0.10058
vn -0.77872 0.62184 0.08311
vn 0.12513 0.51309 0.84916
vn -0.99442 -0.03211 0.10051
vn -0.10579 -0.17316 -0.9792
vn 0.93833 -0.33213 -0.09603
vn 0.092 -0.20101 0.97526
vn -0.03573 -0.99936 0.00033
vn -0.10098 0.00583 -0.99487
vn 0.03573 0.99936 -0.00033
vn 0.94896 -0.30012 -0.097
vn -0.50938 0.85882 0.05436
vn 0.09053 0.7838 0.61438
vn -0.77931 -0.51393 0.35854
vn -0.20372 -0.34587 -0.9159
vn 0.86979 0.35942 -0.33805
vn 0.2942 0.19136 0.93639
vn 0.50206 -0.85733 0.11369
vn -0.24789 -0.27327 -0.92945
vn -0.50206 0.85733 -0.11369
vn 0.86229 0.37484 -0.34051
vn -0.967 0.11847 0.22558
vn -0.04785 0.67651 0.73488
vt 0.21165 0.21555
vt 0.24929 0.21555
vt 0.24929 0.2532
vt 0.21165 0.2532
vt 0.69212 0.20384
vt 0.72976 0.20384
vt 0.72976 0.24148
vt 0.69212 0.24148
vt 0.25462 0.6804
vt 0.29226 0.6804
vt 0.29226 0.71804
vt 0.25462 0.71804
vt 0.78906 0.2532
vt 0.80536 0.24379
vt 0.80536 0.22496
vt 0.78906 0.21555
vt 0.77276 0.22496
vt 0.77276 0.24379
vt 0.77024 0.21555
vt 0.80788 0.21555
vt 0.80788 0.2532
vt 0.77024 0.2532
vt 0.21555 0.70384
vt 0.2532 0.70384
vt 0.2532 0.74148
vt 0.21555 0.74148
usemtl mat0
f 1/1/1 2/2/1 3/3/1
f 1/1/1 3/3/1 4/4/1
f 5/1/1 6/2/1 7/3/1
f 5/1/1 7/3/1 8/4/1
f 9/1/2 10/2/2 11/3/2
f 9/1/2 11/3/2 12/4/2
f 13/1/3 14/2/3 15/3/3
f 13/1/3 15/3/3 16/4/3
f 17/1/4 2/2/4 18/3/4
f 17/1/4 18/3/4 19/4/4
f 20/5/5 21/6/5 22/7/5
f 20/5/5 22/7/5 23/8/5
f 5/1/6 24/2/6 25/3/6
f 5/1/6 25/3/6 26/4/6
f 27/1/7 28/2/7 29/3/7
f 27/1/7 29/3/7 30/4/7
f 31/5/8 32/6/8 33/7/8
f 31/5/8 33/7/8 34/8/8
f 1/1/9 35/2/9 36/3/9
f 1/1/9 36/3/9 37/4/9
f 38/1/10 39/2/10 40/3/10
f 38/1/10 40/3/10 41/4/10
f 42/1/11 43/2/11 44/3/11
f 42/1/11 44/3/11 45/4/11
f 46/1/12 47/2/12 48/3/12
f 46/1/12 48/3/12 49/4/12
f 50/1/13 51/2/13 52/3/13
f 50/1/13 52/3/13 53/4/13
f 54/1/14 55/2/14 56/3/14
f 54/1/14 56/3/14 57/4/14
f 58/1/15 59/2/15 60/3/15
f 58/1/15 60/3/15 61/4/15
f 62/1/16 63/2/16 64/3/16
f 62/1/16 64/3/16 65/4/16
f 66/1/17 67/2/17 40/3/17
f 66/1/17 40/3/17 45/4/17
f 68/1/18 69/2/18 70/3/18
f 68/1/18 70/3/18 65/4/18
f 71/1/19 72/2/19 64/3/19
f 71/1/19 64/3/19 73/4/19
f 74/1/20 75/2/20 76/3/20
f 74/1/20 76/3/20 77/4/20
f 78/1/21 79/2/21 80/3/21
f 78/1/21 80/3/21 81/4/21
f 82/9/22 83/10/22 84/11/22
f 82/9/22 84/11/22 85/12/22
f 86/9/23 87/10/23 88/11/23
f 86/9/23 88/11/23 89/12/23
f 90/9/24 91/10/24 92/11/24
f 90/9/24 92/11/24 93/12/24
f 94/9/25 95/10/25 96/11/25
f 94/9/25 96/11/25 97/12/25
f 98/9/26 99/10/26 88/11/26
f 98/9/26 88/11/26 97/12/26
f 90/9/27 83/10/27 100/11/27
f 90/9/27 100/11/27 101/12/27
f 102/9/28 103/10/28 100/11/28
f 102/9/28 100/11/28 104/12/28
f 94/9/29 87/10/29 105/11/29
f 94/9/29 105/11/29 106/12/29
f 86/9/30 95/10/30 107/11/30
f 86/9/30 107/11/30 108/12/30
f 82/9/31 91/10/31 109/11/31
f 82/9/31 109/11/31 104/12/31
f 110/13/1 111/14/1 112/15/1
f 110/13/1 112/15/1 113/16/1
f 110/13/1 113/16/1 114/17/1
f 110/13/1 114/17/1 115/18/1
f 116/19/32 117/20/32 118/21/32
f 116/19/32 118/21/32 119/22/32
f 120/19/33 121/20/33 122/21/33
f 120/19/33 122/21/33 123/22/33
f 124/19/34 125/20/34 126/21/34
f 124/19/34 126/21/34 127/22/34
f 128/19/35 129/20/35 130/21/35
f 128/19/35 130/21/35 131/22/35
f 132/19/36 133/20/36 134/21/36
f 132/19/36 134/21/36 135/22/36
f 136/19/37 137/20/37 138/21/37
f 136/19/37 138/21/37 139/22/37
f 140/19/38 141/20/38 142/21/38
f 140/19/38 142/21/38 143/22/38
f 144/19/39 145/20/39 146/21/39
f 144/19/39 146/21/39 147/22/39
f 148/19/16 149/20/16 150/21/16
f 148/19/16 150/21/16 151/22/16
f 152/19/16 153/20/16 126/21/16
f 152/19/16 126/21/16 131/22/16
f 154/19/40 155/20/40 156/21/40
f 154/19/40 156/21/40 151/22/40
f 157/19/41 158/20/41 150/21/41
f 157/19/41 150/21/41 159/22/41
f 160/19/42 161/20/42 162/21/42
f 160/19/42 162/21/42 163/22/42
f 164/19/43 165/20/43 166/21/43
f 164/19/43 166/21/43 167/22/43
f 168/5/44 169/6/44 22/7/44
f 168/5/44 22/7/44 170/8/44
f 171/5/45 172/6/45 173/7/45
f 171/5/45 173/7/45 174/8/45
f 175/5/46 176/6/46 177/7/46
f 175/5/46 177/7/46 170/8/46
f 178/5/47 179/6/47 173/7/47
f 178/5/47 173/7/47 180/8/47
f 181/5/48 182/6/48 183/7/48
f 181/5/48 183/7/48 184/8/48
f 185/5/49 186/6/49 187/7/49
f 185/5/49 187/7/49 174/8/49
f 188/9/50 189/10/50 190/11/50
f 188/9/50 190/11/50 191/12/50
f 192/9/51 193/10/51 194/11/51
f 192/9/51 194/11/51 195/12/51
f 196/9/52 197/10/52 198/11/52
f 196/9/52 198/11/52 199/12/52
f 200/9/53 201/10/53 202/11/53
f 200/9/53 202/11/53 203/12/53
f 204/9/54 205/10/54 194/11/54
f 204/9/54 194/11/54 203/12/54
f 196/9/55 189/10/55 206/11/55
f 196/9/55 206/11/55 207/12/55
f 208/9/56 209/10/56 206/11/56
f 208/9/56 206/11/56 210/12/56
f 200/9/57 193/10/57 211/11/57
f 200/9/57 211/11/57 212/12/57
f 192/9/58 201/10/58 213/11/58
f 192/9/58 213/11/58 214/12/58
f 188/9/59 197/10/59 215/11/59
f 188/9/59 215/11/59 210/12/59
f 216/23/60 217/24/60 218/25/60
f 216/23/60 218/25/60 219/26/60
f 220/23/61 221/24/61 222/25/61
f 220/23/61 222/25/61 223/26/61
f 224/23/62 225/24/62 226/25/62
f 224/23/62 226/25/62 227/26/62
f 228/23/63 229/24/63 230/25/63
f 228/23/63 230/25/63 231/26/63
f 232/23/64 233/24/64 222/25/64
f 232/23/64 222/25/64 231/26/64
f 224/23/65 217/24/65 234/25/65
f 224/23/65 234/25/65 235/26/65
f 236/23/66 237/24/66 234/25/66
f 236/23/66 234/25/66 238/26/66
f 228/23/67 221/24/67 239/25/67
f 228/23/67 239/25/67 240/26/67
f 220/23/68 229/24/68 241/25/68
f 220/23/68 241/25/68 242/26/68
f 216/23/69 225/24/69 243/25/69
f 216/23/69 243/25/69 238/26/69
f 244/23/70 245/24/70 246/25/70
f 244/23/70 246/25/70 247/26/70
f 248/23/71 249/24/71 250/25/71
f 248/23/71 250/25/71 251/26/71
f 252/23/72 253/24/72 254/25/72
f 252/23/72 254/25/72 255/26/72
f 256/23/73 257/24/73 258/25/73
f 256/23/73 258/25/73 259/26/73
f 260/23/74 261/24/74 250/25/74
f 260/23/74 250/25/74 259/26/74
f 252/23/75 245/24/75 262/25/75
f 252/23/75 262/25/75 263/26/75
f 264/23/76 265/24/76 262/25/76
f 264/23/76 262/25/76 266/26/76
f 256/23/77 249/24/77 267/25/77
f 256/23/77 267/25/77 268/26/77
f 248/23/78 257/24/78 269/25/78
f 248/23/78 269/25/78 270/26/78
f 244/23/79 253/24/79 271/25/79
f 244/23/79 271/25/79 266/26/79
f 272/23/80 273/24/80 274/25/80
f 272/23/80 274/25/80 275/26/80
f 276/23/81 277/24/81 278/25/81
f 276/23/81 278/25/81 279/26/81
f 280/23/82 281/24/82 282/25/82
f 280/23/82 282/25/82 283/26/82
f 284/23/83 285/24/83 286/25/83
f 284/23/83 286/25/83 287/26/83
f 288/23/84 289/24/84 278/25/84
f 288/23/84 278/25/84 287/26/84
f 280/23/85 273/24/85 290/25/85
f 280/23/85 290/25/85 291/26/85
f 292/23/86 293/24/86 290/25/86
f 292/23/86 290/25/86 294/26/86
f 284/23/87 277/24/87 295/25/87
f 284/23/87 295/25/87 296/26/87
f 276/23/88 285/24/88 297/25/88
f 276/23/88 297/25/88 298/26/88
f 272/23/89 281/24/89 299/25/89
f 272/23/89 299/25/89 294/26/89
# Vertices: 299, normals: 89, texture coordinates: 26, faces: 188

