# Blender 5.0.1
# www.blender.org
mtllib apple.mtl
o Icosphere
v 0.680210 -0.323694 0.483709
v -0.319786 -0.323694 0.808633
v -0.937824 -0.323690 -0.042016
v -0.319786 -0.323694 -0.892666
v 0.680210 -0.323694 -0.567742
v 0.232990 0.570746 0.808633
v -0.767005 0.570745 0.483709
v -0.767005 0.570745 -0.567742
v 0.232990 0.570746 -0.892666
v 0.851029 0.570742 -0.042016
v -0.205853 -0.727128 0.457979
v 0.381925 -0.727128 0.266995
v 0.219471 -0.402212 0.766995
v 0.807250 -0.402210 -0.042016
v 0.381925 -0.727128 -0.351028
v -0.569127 -0.727126 -0.042016
v -0.731587 -0.402210 0.457981
v -0.205853 -0.727128 -0.542012
v -0.731587 -0.402210 -0.542013
v 0.219471 -0.402212 -0.851028
v 0.907660 0.123526 0.266996
v 0.907660 0.123526 -0.351029
v -0.043398 0.123526 0.957984
v 0.544388 0.123526 0.767000
v -0.994455 0.123526 0.266996
v -0.631183 0.123526 0.767000
v -0.631183 0.123526 -0.851033
v -0.994455 0.123526 -0.351029
v 0.544388 0.123526 -0.851033
v -0.043398 0.123526 -1.042016
v 0.644792 0.649262 0.457981
v -0.306266 0.649264 0.766995
v -0.894045 0.649262 -0.042016
v -0.306266 0.649264 -0.851028
v 0.644792 0.649262 -0.542013
v 0.119058 0.974180 0.457979
v 0.482332 0.974178 -0.042016
v -0.468720 0.974180 0.266995
v -0.468720 0.974180 -0.351028
v 0.119058 0.974180 -0.542012
v -0.115356 -0.655969 0.177986
v -0.278756 -0.655262 -0.043488
v -0.116913 -0.654539 -0.269752
v 0.145766 -0.655701 0.093945
v 0.148284 -0.654817 -0.182750
v 0.034539 0.903793 -0.035804
v -0.018617 0.903132 0.040560
v -0.107583 0.903389 0.010884
v -0.105325 0.904182 -0.080849
v -0.020012 0.904416 -0.107869
v -0.271946 0.905264 -0.206028
v 0.042960 0.906126 -0.305767
v -0.280272 0.902341 0.132117
v 0.048108 0.901394 0.241652
v 0.244153 0.903829 -0.039980
v -0.105325 1.564182 -0.260849
v -0.020012 1.564415 -0.287869
v -0.107583 1.563389 -0.169116
v -0.018617 1.563132 -0.139441
v 0.034539 1.563792 -0.215804
v -0.020012 1.234416 -0.197869
v 0.034539 1.233793 -0.125804
v -0.107583 1.233389 -0.079116
v -0.105325 1.234182 -0.170849
v -0.018617 1.233132 -0.049441
v -0.020012 1.448915 -0.256369
v -0.107583 1.447889 -0.137616
v 0.034539 1.448292 -0.184304
v -0.105325 1.448682 -0.229349
v -0.018617 1.447632 -0.107941
v -0.665142 1.451743 -0.216845
v -0.665142 1.357243 -0.188345
v -0.667400 1.336450 -0.136613
v -0.667400 1.470950 -0.185113
v -0.387492 1.559419 -0.156364
v -0.387492 1.224919 -0.097864
v -0.385233 1.560212 -0.248097
v -0.385233 1.225712 -0.189597
v -0.247537 1.164154 -0.088490
v -0.247537 1.578654 -0.146990
v -0.245279 1.579447 -0.238723
v -0.245279 1.164947 -0.180223
vn -0.0877 -0.9573 -0.2755
vn 0.7002 -0.6617 0.2680
vn 0.2356 -0.9556 -0.1769
vn 0.2469 -0.9534 0.1735
vn -0.0946 -0.9538 0.2852
vn 0.9050 -0.3304 0.2680
vn 0.0247 -0.3304 0.9435
vn -0.8897 -0.3304 0.3151
vn -0.5746 -0.3304 -0.7488
vn 0.5346 -0.3304 -0.7779
vn 0.8026 -0.1256 0.5831
vn -0.3066 -0.1256 0.9435
vn -0.9921 -0.1256 -0.0000
vn -0.3066 -0.1256 -0.9435
vn 0.8026 -0.1256 -0.5831
vn 0.4089 0.6617 0.6284
vn -0.4713 0.6617 0.5831
vn -0.7002 0.6617 -0.2680
vn 0.0385 0.6617 -0.7488
vn 0.7240 0.6617 -0.1947
vn 0.4911 0.7947 -0.3568
vn 0.4089 0.6617 -0.6284
vn -0.1876 0.7947 -0.5773
vn -0.4713 0.6617 -0.5831
vn 0.7860 -0.1627 -0.5964
vn -0.6071 0.7947 -0.0000
vn -0.7002 0.6617 0.2680
vn -0.1876 0.7947 0.5773
vn 0.0385 0.6617 0.7488
vn 0.4911 0.7947 0.3568
vn 0.7240 0.6617 0.1947
vn 0.8897 0.3304 -0.3151
vn 0.7947 0.1876 -0.5773
vn 0.5746 0.3304 -0.7488
vn -0.0247 0.3304 -0.9435
vn -0.3035 0.1876 -0.9342
vn -0.5346 0.3304 -0.7779
vn -0.9050 0.3304 -0.2680
vn -0.9822 0.1876 -0.0000
vn -0.9050 0.3304 0.2680
vn -0.5346 0.3304 0.7779
vn -0.3035 0.1876 0.9342
vn -0.0247 0.3304 0.9435
vn 0.5746 0.3304 0.7488
vn 0.7947 0.1876 0.5773
vn 0.8897 0.3304 0.3151
vn 0.3066 0.1256 -0.9435
vn 0.3035 -0.1876 -0.9342
vn 0.0247 -0.3304 -0.9435
vn -0.8026 0.1256 -0.5831
vn -0.7947 -0.1876 -0.5773
vn -0.8897 -0.3304 -0.3151
vn -0.8026 0.1256 0.5831
vn -0.7947 -0.1876 0.5773
vn -0.5746 -0.3304 0.7488
vn 0.3066 0.1256 0.9435
vn 0.3035 -0.1876 0.9342
vn 0.5346 -0.3304 0.7779
vn 0.9921 0.1256 -0.0000
vn 0.9822 -0.1876 -0.0000
vn 0.9050 -0.3304 -0.2680
vn 0.4713 -0.6617 -0.5831
vn 0.1876 -0.7947 -0.5773
vn -0.0385 -0.6617 -0.7488
vn -0.4089 -0.6617 -0.6284
vn -0.4911 -0.7947 -0.3568
vn -0.7240 -0.6617 -0.1947
vn -0.7240 -0.6617 0.1947
vn -0.4911 -0.7947 0.3568
vn -0.4089 -0.6617 0.6284
vn 0.7002 -0.6617 -0.2680
vn 0.6071 -0.7947 -0.0000
vn -0.0385 -0.6617 0.7488
vn 0.1876 -0.7947 0.5773
vn 0.4713 -0.6617 0.5831
vn -0.2895 -0.9572 -0.0000
vn -0.0000 -1.0000 -0.0032
vn 0.0935 0.9483 0.3033
vn 0.3199 0.9473 0.0161
vn -0.0000 1.0000 0.0086
vn -0.2759 0.9400 0.2005
vn -0.2968 0.9303 -0.2157
vn -0.3057 0.2505 0.9186
vn -0.9997 -0.0067 -0.0247
vn 0.8103 0.1542 0.5654
vn -0.2916 -0.2517 -0.9228
vn -0.0676 0.1719 0.9828
vn -0.9980 -0.0181 -0.0601
vn -0.3014 0.9535 0.0008
vn 0.0050 -0.2887 -0.9574
vn -0.3986 -0.8448 -0.3570
vn -0.3972 -0.9176 -0.0177
vn 0.0893 -0.1716 -0.9811
vn -0.1365 0.9906 0.0052
vn -0.0056 0.1397 0.9902
vn -0.1912 0.2583 0.9470
vn 0.6817 0.7313 0.0231
vn -0.0641 -0.1395 -0.9881
vn 0.4432 -0.8964 0.0032
vn 0.1151 0.9345 -0.3369
vn -0.0884 -0.9582 -0.2721
vn 0.2319 -0.9580 -0.1685
vn 0.2375 -0.9560 0.1725
vn -0.0919 -0.9548 0.2827
vn -0.2994 -0.9541 -0.0058
vn 0.1013 0.9448 0.3116
vn 0.3562 0.9344 -0.0000
vn -0.2459 0.9496 0.1943
vn -0.2798 0.9418 -0.1866
vn -0.1997 0.3324 0.9218
vn -0.9985 -0.0184 -0.0510
vn -0.3607 0.7863 -0.5016
vn -0.0850 -0.1716 -0.9815
vn -0.3681 -0.9296 -0.0171
vn 0.0056 -0.1397 -0.9902
vn -0.0893 0.1716 0.9811
vn 0.0641 0.1395 0.9881
vn 0.1912 -0.2583 -0.9470
vn 0.1138 0.9298 -0.3501
vt 0.227273 0.078731
vt 0.139296 0.073653
vt 0.224514 0.073951
vt 0.272728 0.157461
vt 0.318182 0.078731
vt 0.363644 0.157976
vt 0.951614 0.060118
vt 0.863636 0.078731
vt 0.866114 0.060905
vt 0.767789 0.055983
vt 0.681818 0.078731
vt 0.681370 0.056789
vt 0.306689 0.008517
vt 0.222893 0.034307
vt 0.309598 0.032203
vt 0.318182 0.236191
vt 0.090910 0.157461
vt 0.181819 0.157461
vt 0.136365 0.236191
vt 0.818182 0.157461
vt 0.909091 0.157461
vt 0.863636 0.236191
vt 0.636364 0.157461
vt 0.727273 0.157461
vt 0.681818 0.236191
vt 0.454581 0.160056
vt 0.545455 0.157461
vt 0.500000 0.236191
vt 0.227273 0.236191
vt 0.045455 0.236191
vt 0.772727 0.236191
vt 0.590909 0.236191
vt 0.409092 0.236191
vt 0.181819 0.314921
vt 0.272728 0.314921
vt 0.227273 0.393651
vt 0.000000 0.314921
vt 0.090910 0.314921
vt 0.045455 0.393651
vt 0.727273 0.314921
vt 0.818182 0.314921
vt 0.772727 0.393651
vt 0.545455 0.314921
vt 0.636364 0.314921
vt 0.590909 0.393651
vt 0.363637 0.314921
vt 0.454546 0.314921
vt 0.409092 0.393651
vt 0.500000 0.393651
vt 0.681818 0.393651
vt 0.492926 0.961803
vt 0.451498 0.985314
vt 0.451498 0.957211
vt 0.863636 0.393651
vt 0.909091 0.314921
vt 0.136365 0.393651
vt 0.318182 0.393651
vt 0.409092 0.236191
vt 0.954545 0.236191
vt 1.000000 0.157461
vt 0.500000 0.078731
vt 0.590909 0.078731
vt 0.772727 0.078731
vt 0.954545 0.078731
vt 0.409092 0.078731
vt 0.136365 0.078731
vt 0.115466 0.044687
vt 0.203616 0.012208
vt 0.112707 0.012208
vt 0.437904 0.014794
vt 0.970980 0.046348
vt 0.768700 0.036402
vt 0.446841 0.603681
vt 0.238791 0.667593
vt 0.326018 0.603482
vt 0.282159 0.723123
vt 0.083641 0.650659
vt 0.133964 0.851181
vt 0.054317 0.902644
vt 0.054317 0.821386
vt 0.239547 0.538260
vt 0.282610 0.484083
vt 0.082053 0.555212
vt 0.000000 0.516940
vt 0.293259 0.929511
vt 0.213611 0.978636
vt 0.213611 0.901097
vt 0.485709 0.837456
vt 0.406062 0.887410
vt 0.406062 0.808007
vt 0.362195 0.809898
vt 0.406062 0.888300
vt 0.362195 0.890191
vt 0.133964 0.930012
vt 0.213611 0.979348
vt 0.133964 0.951229
vt 0.483270 0.773879
vt 0.403623 0.723123
vt 0.483270 0.752038
vt 0.120215 0.977200
vt 0.054317 0.987879
vt 0.054317 0.965864
vt 0.492962 0.918398
vt 0.451498 0.896141
vt 0.492962 0.890296
vt 0.494082 0.929109
vt 0.451498 0.952345
vt 0.451498 0.924243
vt 0.405349 0.998109
vt 0.363477 0.971728
vt 0.405349 0.970007
vt 0.319610 0.810003
vt 0.361482 0.888574
vt 0.319610 0.890296
vt 0.446841 0.485974
vt 0.490707 0.536273
vt 0.446841 0.538164
vt 0.362195 0.727989
vt 0.319610 0.803415
vt 0.319610 0.723123
vt 0.042227 0.839405
vt 0.012090 0.763608
vt 0.054317 0.759341
vt 0.403623 0.727715
vt 0.362195 0.803415
vt 0.362195 0.723123
vt 0.446841 0.539886
vt 0.488712 0.590354
vt 0.446841 0.592076
vt 0.319610 0.971898
vt 0.363477 0.998109
vt 0.319610 1.000000
vt 0.096901 0.907510
vt 0.054317 0.954834
vt 0.054317 0.902644
vt 0.267237 0.901097
vt 0.135526 0.848741
vt 0.267237 0.821386
vt 0.041428 0.919112
vt -0.000000 0.966709
vt -0.000000 0.914520
vt 0.293259 0.909808
vt 0.312823 0.934659
vt 0.295717 0.932945
vt 0.000000 0.914519
vt 0.017432 0.844030
vt 0.042807 0.912096
vt 0.319610 0.970007
vt 0.451498 0.920658
vt 0.451275 0.943827
vt 0.267237 0.821386
vt 0.294914 0.892280
vt 0.268939 0.893979
vt 0.489883 0.673766
vt 0.446840 0.638792
vt 0.489883 0.637883
vt 0.253655 0.821386
vt 0.319361 0.737554
vt 0.319610 0.817266
vt 0.489886 0.675551
vt 0.446841 0.707909
vt 0.446841 0.674675
vt 0.187949 0.737554
vt 0.253655 0.723123
vt 0.120157 0.790684
vt 0.054317 0.723123
vt 0.121008 0.738496
vt 0.489892 0.592868
vt 0.446841 0.637090
vt 0.446841 0.592076
vt 0.121859 0.790684
vt 0.187699 0.723123
vt 0.187699 0.821386
vt -0.000000 0.727391
vt 0.042227 0.723123
vt 0.128421 0.407410
vt 0.053821 0.408141
vt 0.215780 0.008517
vt 0.492926 0.989906
vt 0.201425 0.030616
vt 0.682281 0.012690
vt 0.277985 0.050519
vt 0.000000 0.689320
vt 0.133964 0.873196
vt 0.293259 0.950517
vt 0.485709 0.858996
vt 0.403623 0.803674
vt 0.096223 0.959700
vt 0.095507 0.994190
vt 0.451498 0.924243
vt 0.494082 0.957211
vt 0.363477 0.999831
vt 0.361482 0.808281
vt 0.490707 0.484083
vt 0.362195 0.808281
vt -0.000000 0.843673
vt 0.403623 0.808008
vt 0.488712 0.538164
vt 0.363477 0.970007
vt 0.096901 0.959700
vt 0.133964 0.882294
vt 0.041428 0.971302
vt 0.312823 0.901097
vt 0.000000 0.843673
vt 0.319610 0.890296
vt 0.310318 0.821386
vt 0.446840 0.674675
vt 0.489886 0.708785
vt 0.187699 0.817266
vt 0.054317 0.821386
vt 0.489892 0.637883
vt 0.121008 0.738496
s 0
usemtl Material
f 12/1/1 41/2/1 44/3/1
f 1/4/2 12/5/2 14/6/2
f 41/7/3 16/8/3 42/9/3
f 42/10/4 18/11/4 43/12/4
f 18/13/5 45/14/5 43/15/5
f 1/4/6 14/6/6 21/16/6
f 2/17/7 13/18/7 23/19/7
f 3/20/8 17/21/8 25/22/8
f 4/23/9 19/24/9 27/25/9
f 5/26/10 20/27/10 29/28/10
f 1/4/11 21/16/11 24/29/11
f 2/17/12 23/19/12 26/30/12
f 3/20/13 25/22/13 28/31/13
f 4/23/14 27/25/14 30/32/14
f 5/26/15 29/28/15 22/33/15
f 6/34/16 31/35/16 36/36/16
f 7/37/17 32/38/17 38/39/17
f 8/40/18 33/41/18 39/42/18
f 9/43/19 34/44/19 40/45/19
f 10/46/20 35/47/20 37/48/20
f 37/48/21 35/47/21 40/49/21
f 35/47/22 9/43/22 40/49/22
f 40/45/23 34/44/23 39/50/23
f 34/44/24 8/40/24 39/50/24
f 66/51/25 60/52/25 68/53/25
f 39/42/26 33/41/26 38/54/26
f 33/41/27 7/55/27 38/54/27
f 38/39/28 32/38/28 36/56/28
f 32/38/29 6/34/29 36/56/29
f 36/36/30 31/35/30 37/57/30
f 31/35/31 10/46/31 37/57/31
f 22/58/32 35/47/32 10/46/32
f 22/58/33 29/28/33 35/47/33
f 29/28/34 9/43/34 35/47/34
f 30/32/35 34/44/35 9/43/35
f 30/32/36 27/25/36 34/44/36
f 27/25/37 8/40/37 34/44/37
f 28/31/38 33/41/38 8/40/38
f 28/31/39 25/22/39 33/41/39
f 25/22/40 7/55/40 33/41/40
f 26/30/41 32/38/41 7/37/41
f 26/30/42 23/19/42 32/38/42
f 23/19/43 6/34/43 32/38/43
f 24/29/44 31/35/44 6/34/44
f 24/29/45 21/16/45 31/35/45
f 21/16/46 10/46/46 31/35/46
f 29/28/47 30/32/47 9/43/47
f 29/28/48 20/27/48 30/32/48
f 20/27/49 4/23/49 30/32/49
f 27/25/50 28/31/50 8/40/50
f 27/25/51 19/24/51 28/31/51
f 19/24/52 3/20/52 28/31/52
f 25/22/53 26/59/53 7/55/53
f 25/22/54 17/21/54 26/59/54
f 17/21/55 2/60/55 26/59/55
f 23/19/56 24/29/56 6/34/56
f 23/19/57 13/18/57 24/29/57
f 13/18/58 1/4/58 24/29/58
f 21/16/59 22/58/59 10/46/59
f 21/16/60 14/6/60 22/33/60
f 14/6/61 5/26/61 22/33/61
f 15/61/62 20/27/62 5/26/62
f 15/61/63 18/62/63 20/27/63
f 18/62/64 4/23/64 20/27/64
f 18/11/65 19/24/65 4/23/65
f 18/11/66 16/63/66 19/24/66
f 16/63/67 3/20/67 19/24/67
f 16/8/68 17/21/68 3/20/68
f 16/8/69 11/64/69 17/21/69
f 11/64/70 2/60/70 17/21/70
f 14/6/71 15/65/71 5/26/71
f 14/6/72 12/5/72 15/65/72
f 11/66/73 13/18/73 2/17/73
f 11/66/74 12/1/74 13/18/74
f 12/1/75 1/4/75 13/18/75
f 44/67/76 15/68/76 12/69/76
f 45/70/77 41/71/77 42/72/77
f 40/73/78 51/74/78 52/75/78
f 39/76/79 53/77/79 51/74/79
f 47/78/80 53/79/80 54/80/80
f 40/73/81 55/81/81 37/82/81
f 37/82/82 54/83/82 36/84/82
f 49/85/80 52/86/80 51/87/80
f 48/88/80 51/89/80 53/90/80
f 48/91/83 65/92/83 63/93/83
f 46/94/80 52/95/80 50/96/80
f 47/97/80 55/98/80 46/99/80
f 57/100/80 58/101/80 59/102/80
f 69/103/84 58/104/84 56/105/84
f 68/106/85 59/107/85 70/108/85
f 66/109/86 56/110/86 57/111/86
f 50/112/86 64/113/86 61/114/86
f 63/115/83 70/116/83 67/117/83
f 46/118/85 65/119/85 47/120/85
f 49/121/84 63/122/84 64/123/84
f 50/124/25 62/125/25 46/126/25
f 61/127/86 69/128/86 66/129/86
f 67/130/83 59/131/83 58/132/83
f 62/133/85 70/134/85 65/135/85
f 75/136/87 73/137/87 76/138/87
f 61/139/25 68/140/25 62/141/25
f 72/142/88 74/143/88 71/144/88
f 77/145/89 74/146/89 75/147/89
f 77/148/90 72/149/90 71/150/90
f 78/151/91 73/152/91 72/153/91
f 82/154/92 76/155/92 78/156/92
f 81/157/93 78/158/93 77/159/93
f 81/160/94 75/161/94 80/162/94
f 80/157/95 76/163/95 79/164/95
f 67/165/96 79/166/96 63/167/96
f 69/168/97 80/169/97 67/170/97
f 69/171/98 82/172/98 81/173/98
f 64/123/99 79/174/99 82/175/99
f 38/39/100 54/176/100 53/177/100
f 12/1/101 11/66/101 41/2/101
f 41/7/102 11/64/102 16/8/102
f 42/10/103 16/63/103 18/11/103
f 18/13/104 15/178/104 45/14/104
f 66/51/25 57/179/25 60/52/25
f 44/67/105 45/180/105 15/68/105
f 42/72/77 43/181/77 45/70/77
f 45/70/77 44/182/77 41/71/77
f 40/73/106 39/76/106 51/74/106
f 39/76/107 38/183/107 53/77/107
f 47/78/80 48/184/80 53/79/80
f 40/73/108 52/75/108 55/81/108
f 37/82/109 55/81/109 54/83/109
f 49/85/80 50/185/80 52/86/80
f 48/88/80 49/186/80 51/89/80
f 48/91/83 47/90/83 65/92/83
f 46/94/80 55/87/80 52/95/80
f 47/97/80 54/187/80 55/98/80
f 59/102/80 60/188/80 57/100/80
f 57/100/80 56/189/80 58/101/80
f 69/103/84 67/190/84 58/104/84
f 68/106/85 60/191/85 59/107/85
f 66/109/86 69/192/86 56/110/86
f 50/112/86 49/193/86 64/113/86
f 63/115/83 65/194/83 70/116/83
f 46/118/85 62/195/85 65/119/85
f 49/121/84 48/196/84 63/122/84
f 50/124/25 61/197/25 62/125/25
f 61/127/86 64/198/86 69/128/86
f 67/130/83 70/199/83 59/131/83
f 62/133/85 68/200/85 70/134/85
f 75/136/110 74/201/110 73/137/110
f 61/139/25 66/202/25 68/140/25
f 72/142/111 73/203/111 74/143/111
f 77/145/112 71/204/112 74/146/112
f 77/148/113 78/205/113 72/149/113
f 78/151/114 76/206/114 73/152/114
f 82/154/92 79/207/92 76/155/92
f 81/157/115 82/164/115 78/158/115
f 81/160/94 77/208/94 75/161/94
f 80/157/116 75/209/116 76/163/116
f 67/165/117 80/210/117 79/166/117
f 69/168/97 81/211/97 80/169/97
f 69/171/118 64/212/118 82/172/118
f 64/123/99 63/122/99 79/174/99
f 38/39/119 36/56/119 54/176/119
