# Blender 5.0.1
# www.blender.org
mtllib rock2.mtl
o Cube
v -0.378951 3.276209 0.439511
v -0.413847 3.140803 0.552686
v -0.373645 3.749974 -0.443448
v 0.568289 3.140803 0.552686
v 0.538345 3.294740 0.525063
v 0.548489 3.655693 -0.385777
v 0.594331 3.391796 -0.357204
v 0.495618 3.423896 -0.438880
v -0.347271 3.517868 -0.489669
v -0.434593 3.503634 -0.429702
v -0.619383 0.000000 0.487361
v 0.710911 0.000000 0.549889
v 0.730373 0.000000 -0.466244
v 0.631202 0.000000 -0.545827
v -0.554255 0.000001 -0.573264
v -0.642148 0.000000 -0.510259
v 0.648240 0.000000 0.596366
v -0.469614 0.000000 0.596366
v 0.853499 0.329435 0.083378
v 1.076818 0.007473 -0.078873
v 1.576167 0.007473 0.608421
v 0.768196 0.007473 0.345900
v 1.485611 0.392974 0.415607
v 1.569776 0.329435 0.219698
v 1.617356 0.162934 0.481661
v 1.569776 0.329435 0.472102
v 1.338531 0.360659 0.096874
v 1.125592 0.329435 -0.005032
v 1.529747 0.074397 0.049652
v 1.459479 0.329435 0.623909
v 1.180316 0.329435 0.714612
v 1.302412 0.468684 0.598502
v 1.216690 0.020436 0.748444
v 0.904989 0.007473 0.534174
v 1.392313 0.007473 0.023639
v 1.576167 0.007473 0.276694
v 1.023443 0.333019 0.593706
v 1.015707 0.307856 0.625246
v 1.012594 0.238824 0.626636
v 0.924246 0.119072 0.556443
v 0.915292 0.237221 0.539634
v 0.941994 0.303851 0.525293
v 0.741121 0.217488 -0.458813
v 1.169095 0.260902 -0.693140
v 1.089366 0.217488 -0.815077
v 1.256477 0.103723 -0.743183
v 1.233057 0.217488 -0.719709
v 0.932070 0.238823 -0.729839
v 0.793598 0.217488 -0.647119
v 0.977436 0.043228 -0.856539
v 1.277806 0.217488 -0.599558
v 1.223963 0.217488 -0.406361
v 1.203995 0.312633 -0.519741
v 1.256967 0.006358 -0.414286
v 1.095859 0.219937 -0.362738
v 1.110892 0.202744 -0.346417
v 1.110507 0.155576 -0.344119
v 1.037165 0.073753 -0.320346
v 1.024212 0.154480 -0.321599
v 1.026137 0.200007 -0.342219
v 1.082001 0.000000 -0.062920
v 0.784970 0.000000 0.345900
v 1.562596 0.000000 0.598561
v 1.209349 0.000000 0.712032
v 0.920170 0.000000 0.531982
v 1.394919 0.000000 0.038755
v 1.562597 0.000000 0.269544
v 0.857010 0.000000 -0.312738
v 0.733223 0.000000 -0.645111
v 1.311746 0.000000 -0.673518
v 0.746486 0.000000 -0.658691
v 0.733819 0.000000 -0.647250
v 0.914346 0.000000 -0.791867
v 1.123832 0.000000 -0.797383
v 1.246266 0.000000 -0.418647
v 1.297244 0.000000 -0.599160
v 1.312677 0.000000 -0.671018
v 0.860983 0.000000 -0.311227
v 1.017865 0.000000 -0.317880
vn 0.0045 0.9066 0.4219
vn 0.5955 0.0263 0.8029
vn 0.6428 0.0288 -0.7655
vn 0.9987 0.0421 0.0291
vn 0.9785 0.1886 0.0828
vn -0.5741 0.0967 -0.8131
vn 0.0398 0.0270 -0.9988
vn 0.0817 0.2042 -0.9755
vn -0.9495 0.2832 0.1349
vn -0.9976 0.0613 0.0332
vn -0.0000 0.0139 0.9999
vn -0.0447 0.4377 0.8980
vn -0.5765 0.0531 -0.8153
vn 0.6358 0.0497 -0.7703
vn -0.0000 -1.0000 -0.0000
vn -0.5883 0.0217 0.8083
vn 0.7820 0.2561 0.5682
vn -0.8678 -0.4970 -0.0000
vn -0.2834 -0.2506 0.9257
vn -0.3299 -0.8411 0.4286
vn 0.0571 -0.9763 0.2086
vn 0.2987 -0.2561 0.9193
vn -0.2991 -0.2508 -0.9207
vn -0.5496 -0.7774 -0.3061
vn -0.7820 -0.2561 -0.5682
vn -0.1480 0.8750 -0.4609
vn -0.3643 -0.0874 -0.9272
vn -0.2987 0.2561 0.9193
vn -0.1491 0.8760 0.4588
vn -0.9871 0.1148 0.1113
vn 0.7008 -0.2207 -0.6784
vn 0.8933 -0.4015 -0.2021
vn 0.3814 -0.7660 -0.5176
vn 0.4807 -0.0393 -0.8760
vn -0.0000 1.0000 -0.0000
vn 0.8088 -0.0223 -0.5876
vn 0.4350 -0.8897 -0.1386
vn -0.4799 -0.4970 0.7230
vn 0.1747 -0.8411 0.5119
vn 0.2053 -0.9763 0.0678
vn 0.9312 -0.2561 0.2595
vn -0.9325 -0.2508 -0.2599
vn -0.5589 -0.7774 0.2886
vn -0.4661 0.8749 -0.1316
vn -0.2734 0.3169 0.9082
vn -0.1777 -0.2207 -0.9590
vn -0.2203 -0.7660 -0.6040
vn -0.4640 -0.0393 -0.8849
vn 0.1251 -0.8897 -0.4391
vn -0.0424 -0.0223 -0.9989
vn -0.9740 -0.0874 -0.2092
vn -0.3742 0.1101 -0.9208
vn 0.6145 -0.2506 0.7480
vn 0.6008 0.2561 0.7573
vn -0.9059 -0.2561 0.3374
vn -0.4513 0.1146 0.8850
vn 0.9059 0.2561 -0.3374
vn 0.3256 -0.4015 -0.8560
vn -0.8904 0.3493 0.2919
vn 0.5517 0.1832 -0.8137
vn -0.4824 0.8760 -0.0000
vn 0.3903 0.8760 -0.2835
vn 0.3903 0.8760 0.2835
vt 0.629117 0.506669
vt 0.840500 0.511016
vt 0.859352 0.745206
vt 0.645065 0.765970
vt 0.515760 0.751178
vt 0.636169 0.768669
vt 0.512754 0.766074
vt 0.617741 0.520610
vt 0.616966 0.482879
vt 0.629111 0.506666
vt 0.501179 0.517710
vt 0.616379 0.290643
vt 0.616745 0.257998
vt 0.625017 0.272733
vt 0.498142 0.277178
vt 0.497869 0.486463
vt 0.625017 0.272733
vt 0.625000 0.006643
vt 0.619833 0.000000
vt 0.506956 0.020835
vt 0.498703 0.247948
vt 0.619833 1.000000
vt 0.506346 0.977838
vt 0.626064 0.984706
vt 0.508542 1.000000
vt 0.272728 0.157461
vt 0.363637 0.314921
vt 0.181819 0.314921
vt 0.806733 0.097969
vt 0.872178 0.157731
vt 0.771169 0.238890
vt 0.764163 0.157461
vt 0.959685 0.087632
vt 0.173656 0.157461
vt 0.181819 0.314921
vt 0.473602 0.282203
vt 0.914639 -0.036618
vt 0.872201 0.157461
vt 0.187303 -0.050254
vt 0.173656 0.157461
vt 0.131225 0.087632
vt 0.699184 0.157461
vt 0.646685 0.314921
vt 0.573544 0.157461
vt 0.620323 0.074109
vt 0.727273 0.314921
vt 0.634881 0.329610
vt 0.646685 0.314921
vt 0.723859 0.320835
vt 0.018897 0.282191
vt 0.066944 0.314921
vt 0.064468 0.320835
vt 0.178405 0.320835
vt 0.842147 0.314921
vt 0.459985 0.129702
vt 0.486430 0.157461
vt 0.496569 0.191899
vt 0.448163 0.254842
vt 0.435046 0.191236
vt 0.430534 0.157461
vt 0.451254 0.320835
vt 0.844623 0.320835
vt 0.360223 0.320835
vt 0.444225 0.314921
vt 0.413294 -0.013363
vt 0.181726 0.313132
vt 0.182852 0.313132
vt 0.641311 0.321609
vt 0.704532 0.314921
vt 0.076749 0.313133
vt 0.842488 0.313135
vt 0.246335 0.282217
vt 0.364774 0.312952
vt 0.444355 0.312952
vt 0.726954 0.313132
vt 0.728306 0.313132
vt 0.172914 0.313132
vt 0.362604 0.313132
vt 0.704532 0.314921
vt 0.197767 0.313133
vt 0.064317 0.313132
vt 0.182852 0.313132
vt 0.771461 0.320835
vt 0.730687 0.320835
vt 0.367051 0.320835
vt 0.185233 0.320835
s 0
usemtl Material.001
f 6/1/1 3/2/1 1/3/1 5/4/1
f 12/5/2 4/6/2 17/7/2
f 7/8/3 8/9/3 6/10/3
f 13/11/4 7/8/4 4/6/4 12/5/4
f 4/6/5 7/8/5 6/1/5 5/4/5
f 9/12/6 10/13/6 3/14/6
f 15/15/7 9/12/7 8/9/7 14/16/7
f 9/12/8 3/17/8 6/10/8 8/9/8
f 1/18/9 3/14/9 10/13/9 2/19/9
f 11/20/10 2/19/10 10/13/10 16/21/10
f 17/7/11 4/6/11 2/22/11 18/23/11
f 4/6/12 5/4/12 1/24/12 2/22/12
f 9/12/13 15/15/13 16/21/13 10/13/13
f 7/8/14 13/11/14 14/16/14 8/9/14
f 12/5/15 17/7/15 18/23/15 11/20/15 16/21/15 15/15/15 14/16/15 13/11/15
f 2/22/16 11/25/16 18/23/16
f 19/26/17 22/27/17 20/28/17
f 12/5/15 17/7/15 18/23/15 11/20/15 16/21/15 15/15/15 14/16/15 13/11/15
f 23/29/18 24/30/18 25/31/18 26/32/18
f 27/33/19 28/34/19 20/35/19 29/36/19
f 32/37/20 27/33/20 29/36/20 24/38/20 23/29/20
f 32/39/21 19/26/21 28/40/21 27/41/21
f 20/35/22 28/40/22 19/26/22
f 30/42/23 33/43/23 31/44/23 32/45/23
f 32/45/24 23/29/24 26/32/24 30/42/24
f 30/42/25 26/32/25 25/31/25 21/46/25
f 64/47/26 33/48/26 21/46/26 63/49/26
f 33/43/27 30/42/27 21/46/27
f 29/50/28 20/28/28 35/51/28
f 66/52/29 35/51/29 20/28/29 61/53/29
f 25/31/30 24/30/30 36/54/30 21/46/30
f 37/55/31 38/56/31 39/57/31 40/58/31 41/59/31 42/60/31
f 19/26/32 42/60/32 41/59/32 22/27/32
f 32/45/33 31/44/33 38/56/33 37/55/33
f 39/57/34 38/56/34 31/44/34 33/43/34
f 65/61/35 64/47/35 63/49/35 67/62/35 66/52/35 61/53/35 62/63/35
f 41/59/36 40/58/36 34/64/36 22/27/36
f 19/26/37 32/65/37 37/55/37 42/60/37
f 44/29/38 45/30/38 46/31/38 47/32/38
f 53/37/39 48/33/39 50/36/39 45/38/39 44/29/39
f 53/39/40 43/26/40 49/40/40 48/41/40
f 72/66/41 49/40/41 43/26/41 69/67/41
f 51/42/42 54/43/42 52/44/42 53/45/42
f 53/45/43 44/29/43 47/32/43 51/42/43
f 75/68/44 54/48/44 76/69/44
f 73/70/45 74/71/45 45/30/45 50/72/45
f 78/73/35 79/74/35 75/68/35 76/69/35 77/75/35 70/76/35 74/71/35 73/70/35 71/77/35 72/66/35 69/67/35 68/78/35
f 55/55/46 56/56/46 57/57/46 58/58/46 59/59/46 60/60/46
f 53/45/47 52/44/47 56/56/47 55/55/47
f 57/57/48 56/56/48 52/44/48 54/43/48
f 43/26/49 53/65/49 55/55/49 60/60/49
f 59/59/50 58/58/50 79/74/50 78/73/50
f 54/43/51 51/42/51 77/75/51 76/79/51
f 54/48/52 75/68/52 79/74/52 58/58/52 57/57/52
f 48/33/53 49/34/53 72/66/53 71/80/53 50/36/53
f 50/50/54 71/77/54 73/81/54
f 51/42/55 47/32/55 46/31/55 70/76/55 77/75/55
f 46/31/56 45/30/56 74/71/56 70/76/56
f 43/26/57 68/78/57 69/82/57
f 43/26/58 60/60/58 59/59/58 78/73/58 68/78/58
f 35/51/59 66/52/59 67/83/59 36/54/59 24/30/59 29/72/59
f 33/48/60 64/47/60 65/61/60 34/64/60 40/58/60 39/57/60
f 21/46/61 36/54/61 67/62/61 63/84/61
f 22/27/62 34/64/62 65/61/62 62/85/62
f 20/28/63 22/27/63 62/63/63 61/86/63
