# Blender 5.0.1
# www.blender.org
mtllib snake_tail_start.mtl
o Cube
o Cube.001
v 0.983765 -0.873658 0.758372
v 0.983765 0.873658 0.758372
v 0.983765 -0.873658 -0.758372
v 0.983765 0.865981 -0.758372
v 0.983765 0.000000 -1.151000
v 0.983765 0.000000 1.151000
v -0.964360 -0.034440 -0.628413
v -0.964360 0.816954 -0.546338
v -0.964360 -0.061023 0.616467
v -0.964360 0.824631 0.546338
v -0.964360 0.412322 0.829192
v -0.964360 0.412322 -0.829192
vn -0.1031 0.5699 -0.8152
vn 1.0000 -0.0000 -0.0000
vn -0.3967 -0.9178 -0.0196
vn -1.0000 -0.0000 -0.0000
vn -0.2310 -0.3988 -0.8875
vn -0.2310 -0.3988 0.8875
vn -0.0259 0.9996 -0.0070
vn -0.0638 0.4091 0.9103
vn -0.0629 0.4121 -0.9090
vn -0.3850 -0.9229 -0.0000
vn -0.0246 0.9997 -0.0051
vn -0.1034 0.5627 0.8202
vt 0.500000 0.375000
vt 0.625000 0.500000
vt 0.625000 0.375000
vt 0.500000 0.750000
vt 0.500000 0.500000
vt 0.247049 0.767084
vt 0.375000 0.500000
vt 0.246509 0.483734
vt 0.500000 0.875000
vt 0.375000 0.750000
vt 0.411271 0.375000
vt 0.405991 0.875000
vt 0.750000 0.750000
vt 0.750000 0.500000
vt 0.625000 0.750000
vt 0.625000 0.875000
s 0
f 12/1/1 8/3/1 4/2/1
f 6/4/2 5/5/2 4/2/2
f 9/6/3 7/8/3 3/7/3
f 8/3/4 7/8/4 11/9/4
f 1/10/2 3/7/2 5/5/2
f 7/11/5 12/1/5 5/5/5
f 9/12/6 1/10/6 6/4/6
f 4/2/7 8/14/7 10/13/7
f 11/9/8 6/4/8 2/15/8
f 12/1/9 4/2/9 5/5/9
f 6/4/2 4/2/2 2/15/2
f 9/6/10 3/7/10 1/10/10
f 7/8/4 8/3/4 12/1/4
f 8/3/4 11/9/4 10/13/4
f 11/9/4 7/8/4 9/12/4
f 1/10/2 5/5/2 6/4/2
f 7/11/5 5/5/5 3/7/5
f 9/12/6 6/4/6 11/9/6
f 4/2/11 10/13/11 2/15/11
f 11/9/12 2/15/12 10/16/12
