# Blender 5.0.1
# www.blender.org
mtllib snake_head_end.mtl
o Cube
v -0.974060 -0.873658 0.758372
v -0.974060 0.873658 0.758372
v -0.974060 -0.873658 -0.758372
v -0.974060 0.873658 -0.758372
v -0.974060 0.000000 1.151000
v -0.974060 0.000000 -1.151000
v 0.974065 -0.873658 -0.670125
v 0.974065 1.216809 -0.609254
v 0.974065 -0.873658 0.680213
v 0.974065 1.216809 0.543350
v 0.974065 0.205208 1.084786
v 0.974065 0.298345 -1.054733
v 0.000002 -0.873658 -0.302587
v -0.090600 0.382154 0.788201
v -0.287438 1.212403 0.000000
v 0.000002 -0.873658 0.175697
v -0.106322 0.448471 -0.725243
v -0.974060 -0.873658 0.000000
v -0.974060 0.873658 0.000000
v -0.974060 0.000000 0.000000
v 0.974065 1.216809 0.000000
v 0.974065 -0.873658 0.000000
v 0.000002 -0.873658 0.000000
v -0.287438 1.212403 0.000000
vn -1.0000 -0.0000 -0.0000
vn 0.1935 0.4022 0.8949
vn -0.4424 0.8968 -0.0000
vn 0.4796 -0.3565 0.8018
vn -0.3355 -0.3112 -0.8891
vn -0.0000 -1.0000 -0.0000
vn -0.2090 0.4268 -0.8799
vn 0.2294 0.3990 -0.8878
vn 0.3925 -0.3770 -0.8389
vn -0.4168 -0.4226 0.8048
vn -0.0035 1.0000 -0.0000
vn -0.1649 0.4654 0.8696
vn 1.0000 -0.0000 -0.0000
vn -0.0000 1.0000 -0.0000
vn 0.3602 0.6858 0.6324
vn 0.4832 -0.3589 0.7986
vn -0.3160 -0.2958 -0.9015
vn -0.3496 0.6001 -0.7195
vn 0.3602 0.6858 -0.6324
vn 0.5196 -0.2220 -0.8251
vn -0.3041 -0.3345 0.8920
vn -0.3142 0.6134 0.7246
vt 0.500000 0.125000
vt 0.625000 0.250000
vt 0.500000 0.250000
vt 0.547973 0.937651
vt 0.625000 1.000000
vt 0.500000 1.000000
vt 0.812500 0.625000
vt 0.875000 0.625000
vt 0.875000 0.750000
vt 0.375000 1.000000
vt 0.343830 0.937500
vt 0.375000 0.250000
vt 0.375000 0.125000
vt 0.556298 0.312323
vt 0.369397 0.374573
vt 0.350618 0.312500
vt 0.250000 0.625000
vt 0.187500 0.653960
vt 0.187500 0.625000
vt 0.631846 0.374418
vt 0.530648 0.375000
vt 0.125000 0.625000
vt 0.125000 0.750000
vt 0.369913 0.875438
vt 0.750000 0.625000
vt 0.750000 0.714559
vt 0.634830 0.875780
vt 0.521081 0.875000
vt 0.750000 0.524579
vt 0.187500 0.575126
vt 0.125000 0.500000
vt 0.375000 0.000000
vt 0.625000 0.000000
vt 0.500000 0.000000
vt 0.625000 0.125000
vt 0.652198 0.937979
vt 0.250000 0.737117
vt 0.652198 0.312021
vt 0.250000 0.514545
vt 0.875000 0.500000
s 0
f 20/1/1 4/2/1 6/3/1
f 14/4/2 2/5/2 5/6/2
f 24/7/3 19/8/3 2/9/3
f 14/4/4 1/10/4 16/11/4
f 20/1/1 3/12/1 18/13/1
f 17/14/5 7/15/5 13/16/5
f 22/17/6 16/18/6 23/19/6
f 17/14/7 8/20/7 12/21/7
f 4/2/8 17/14/8 6/3/8
f 18/22/6 16/18/6 1/23/6
f 6/3/9 13/16/9 3/12/9
f 9/24/10 14/4/10 16/11/10
f 21/25/11 24/7/11 10/26/11
f 10/27/12 14/4/12 11/28/12
f 22/17/13 21/25/13 11/28/13
f 8/29/11 24/7/11 21/25/11
f 13/30/6 18/22/6 3/31/6
f 13/30/6 22/17/6 23/19/6
f 1/32/1 20/1/1 18/13/1
f 15/7/14 19/8/14 24/7/14
f 2/33/1 20/1/1 5/34/1
f 20/1/1 19/35/1 4/2/1
f 14/4/15 24/36/15 2/5/15
f 14/4/16 5/6/16 1/10/16
f 20/1/1 6/3/1 3/12/1
f 17/14/17 12/21/17 7/15/17
f 22/17/6 9/37/6 16/18/6
f 17/14/18 15/38/18 8/20/18
f 4/2/19 15/38/19 17/14/19
f 18/22/6 23/19/6 16/18/6
f 6/3/20 17/14/20 13/16/20
f 9/24/21 11/28/21 14/4/21
f 10/27/22 24/36/22 14/4/22
f 22/17/13 7/39/13 12/21/13
f 12/21/13 8/20/13 21/25/13
f 21/25/13 10/26/13 11/28/13
f 11/28/13 9/24/13 22/17/13
f 22/17/13 12/21/13 21/25/13
f 8/29/14 15/7/14 24/7/14
f 13/30/6 23/19/6 18/22/6
f 13/30/6 7/39/6 22/17/6
f 1/32/1 5/34/1 20/1/1
f 15/7/3 4/40/3 19/8/3
f 2/33/1 19/35/1 20/1/1
