# Blender 5.0.1
# www.blender.org
mtllib snake_head_start.mtl
o Cube
v 0.554452 -0.873658 0.318028
v 0.554452 -0.873658 -0.262142
v 0.974060 0.000000 -0.356990
v 0.974060 0.000000 0.395941
v -0.974065 -0.873658 -0.670125
v -0.974065 1.216809 -0.609254
v -0.974065 -0.873658 0.680213
v -0.974065 1.216809 0.543350
v -0.974065 0.205208 1.084786
v -0.974065 0.298345 -1.054733
v -0.287443 0.873658 -0.758372
v -0.287443 -0.873658 0.758372
v -0.287443 0.000000 -1.151000
v -0.287443 -0.873658 -0.758372
v -0.287443 0.873658 0.758372
v -0.287443 0.000000 1.151000
v 0.554452 -0.873658 0.000000
v 0.550762 0.873658 0.000000
v 0.974060 0.000000 0.000000
v -0.974065 1.216809 0.000000
v -0.974065 -0.873658 0.000000
v -0.287443 0.873658 0.000000
v -0.287443 -0.873658 0.000000
vn 0.4979 0.3555 -0.7910
vn 0.8999 0.4360 -0.0000
vn -0.0000 -1.0000 -0.0000
vn 0.9014 -0.4329 -0.0000
vn 0.4735 -0.3610 -0.8034
vn -0.1033 -0.4077 0.9072
vn 0.4470 0.8945 -0.0000
vn 0.0345 0.4097 0.9116
vn -1.0000 -0.0000 -0.0000
vn 0.4792 0.3598 0.8006
vn -0.0000 1.0000 -0.0000
vn 0.4306 -0.3700 0.8232
vn -0.1164 -0.4071 -0.9059
vn 0.0502 0.4094 -0.9110
vn 0.5681 0.5319 -0.6280
vn 0.5031 -0.3284 -0.7994
vn -0.1916 -0.3446 0.9190
vn -0.0402 0.4715 0.8809
vn 0.5597 0.5515 0.6186
vn 0.4887 -0.3075 0.8165
vn -0.2595 -0.3011 -0.9176
vn 0.0227 0.4363 -0.8995
vt 0.625000 0.437500
vt 0.500000 0.586230
vt 0.500000 0.437500
vt 0.500000 0.625000
vt 0.648053 0.625000
vt 0.500000 0.668000
vt 0.312500 0.625000
vt 0.375000 0.677420
vt 0.312500 0.750000
vt 0.375000 0.625000
vt 0.375000 0.581792
vt 0.375000 0.437500
vt 0.500000 0.812500
vt 0.369913 0.875438
vt 0.375000 0.812500
vt 0.687500 0.625000
vt 0.750000 0.714559
vt 0.687500 0.750000
vt 0.625000 0.812500
vt 0.521081 0.875000
vt 0.750000 0.625000
vt 0.530648 0.375000
vt 0.369397 0.374573
vt 0.250000 0.737117
vt 0.250000 0.625000
vt 0.250000 0.514545
vt 0.687500 0.500000
vt 0.750000 0.524579
vt 0.312500 0.500000
vt 0.634830 0.875780
vt 0.631846 0.374418
s 0
f 11/1/1 3/2/1 13/3/1
f 19/4/2 18/5/2 4/6/2
f 23/7/3 1/8/3 12/9/3
f 19/4/4 1/8/4 17/10/4
f 13/3/5 2/11/5 14/12/5
f 16/13/6 7/14/6 12/15/6
f 22/16/7 8/17/7 15/18/7
f 15/19/8 9/20/8 16/13/8
f 9/20/9 20/21/9 10/22/9
f 4/6/10 15/19/10 16/13/10
f 18/5/11 22/16/11 15/18/11
f 1/8/12 16/13/12 12/15/12
f 5/23/13 13/3/13 14/12/13
f 23/7/3 7/24/3 21/25/3
f 10/22/14 11/1/14 13/3/14
f 5/26/3 23/7/3 21/25/3
f 18/5/11 11/27/11 22/16/11
f 6/28/7 22/16/7 11/27/7
f 2/11/4 19/4/4 17/10/4
f 2/11/3 23/7/3 14/29/3
f 3/2/2 18/5/2 19/4/2
f 11/1/15 18/5/15 3/2/15
f 23/7/3 17/10/3 1/8/3
f 19/4/4 4/6/4 1/8/4
f 13/3/16 3/2/16 2/11/16
f 16/13/17 9/20/17 7/14/17
f 22/16/7 20/21/7 8/17/7
f 15/19/18 8/30/18 9/20/18
f 10/22/9 5/23/9 21/25/9
f 21/25/9 7/14/9 9/20/9
f 9/20/9 8/17/9 20/21/9
f 20/21/9 6/31/9 10/22/9
f 10/22/9 21/25/9 9/20/9
f 4/6/19 18/5/19 15/19/19
f 1/8/20 4/6/20 16/13/20
f 5/23/21 10/22/21 13/3/21
f 23/7/3 12/9/3 7/24/3
f 10/22/22 6/31/22 11/1/22
f 5/26/3 14/29/3 23/7/3
f 6/28/7 20/21/7 22/16/7
f 2/11/4 3/2/4 19/4/4
f 2/11/3 17/10/3 23/7/3
