# Blender 5.0.1
# www.blender.org
mtllib snake_tail_end.mtl
o Cube
o Cube.001
v -0.964360 0.382832 0.131023
v -0.964360 0.699433 0.161193
v -0.964360 0.376765 -0.119864
v -0.964360 0.699433 -0.161193
v -0.964360 0.535765 0.212161
v -0.964360 0.511350 -0.219764
v 0.983765 -0.034440 -0.628413
v 0.983765 0.816954 -0.546338
v 0.983765 -0.061023 0.616467
v 0.983765 0.824631 0.546338
v 0.983765 0.412322 0.829192
v 0.983765 0.412322 -0.829192
vn -1.0000 -0.0000 -0.0000
vn 1.0000 -0.0000 -0.0000
vn -0.2198 0.5519 0.8044
vn -0.0628 0.9980 -0.0070
vn -0.3054 -0.3903 0.8686
vn -0.3180 -0.5651 -0.7613
vn -0.2277 -0.9735 0.0235
vn -0.2216 0.5587 -0.7992
vn -0.2035 0.2911 0.9348
vn -0.0602 0.9982 -0.0000
vn -0.2957 -0.4477 0.8439
vn -0.2928 -0.3920 -0.8722
vn -0.2117 -0.9771 -0.0209
vn -0.2024 0.2912 -0.9350
vt 0.548659 0.000000
vt 0.625000 0.250000
vt 0.537271 0.250000
vt 0.625000 0.375000
vt 0.500000 0.875000
vt 0.246509 0.483734
vt 0.625000 0.875000
vt 0.548659 1.000000
vt 0.750000 0.500000
vt 0.875000 0.750000
vt 0.750000 0.750000
vt 0.457293 1.001169
vt 0.405991 0.875000
vt 0.464351 0.199686
vt 0.467305 0.042187
vt 0.411271 0.375000
vt 0.122458 0.542946
vt 0.247049 0.767084
vt 0.122506 0.720730
vt 0.500000 0.375000
vt 0.625000 0.000000
vt 0.625000 1.000000
vt 0.875000 0.500000
s 0
f 5/1/1 4/2/1 6/3/1
f 8/4/2 11/5/2 7/6/2
f 10/7/3 5/8/3 11/5/3
f 8/9/4 2/10/4 10/11/4
f 11/5/5 1/12/5 9/13/5
f 5/1/1 3/14/1 1/15/1
f 6/3/6 7/16/6 3/14/6
f 3/17/7 9/18/7 1/19/7
f 6/3/8 8/4/8 12/20/8
f 5/1/1 2/21/1 4/2/1
f 7/6/2 12/20/2 8/4/2
f 8/4/2 10/11/2 11/5/2
f 11/5/2 9/13/2 7/6/2
f 10/7/9 2/22/9 5/8/9
f 8/9/10 4/23/10 2/10/10
f 11/5/11 5/8/11 1/12/11
f 5/1/1 6/3/1 3/14/1
f 6/3/12 12/20/12 7/16/12
f 3/17/13 7/6/13 9/18/13
f 6/3/14 4/2/14 8/4/14
