# Blender 5.0.1
# www.blender.org
mtllib snake_head_start.mtl
o Cube
v 0.554452 -0.873658 0.318028
v 0.554452 -0.873658 -0.262142
v 0.974060 0.000000 -0.356990
v 0.974060 0.000000 0.395941
v -0.974065 -0.873658 -0.670125
v -0.974065 1.216809 -0.609254
v -0.974065 -0.873658 0.680213
v -0.974065 1.216809 0.543350
v -0.974065 0.205208 1.084786
v -0.974065 0.298345 -1.054733
v -0.287443 0.873658 -0.758372
v -0.287443 -0.873658 0.758372
v -0.287443 0.000000 -1.151000
v -0.287443 -0.873658 -0.758372
v -0.287443 0.873658 0.758372
v -0.287443 0.000000 1.151000
v 0.554452 -0.873658 0.000000
v 0.550762 0.873658 0.000000
v 0.974060 0.000000 0.000000
v -0.974065 1.216809 0.000000
v -0.974065 -0.873658 0.000000
v -0.287443 0.873658 0.000000
v -0.287443 -0.873658 0.000000
vn 0.4979 0.3555 -0.7910
vn 0.8999 0.4360 -0.0000
vn -0.0000 -1.0000 -0.0000
vn 0.9014 -0.4329 -0.0000
vn 0.4735 -0.3610 -0.8034
vn -0.1033 -0.4077 0.9072
vn 0.4470 0.8945 -0.0000
vn 0.0345 0.4097 0.9116
vn -1.0000 -0.0000 -0.0000
vn 0.4792 0.3598 0.8006
vn -0.0000 1.0000 -0.0000
vn 0.4306 -0.3700 0.8232
vn -0.1164 -0.4071 -0.9059
vn 0.0502 0.4094 -0.9110
vn 0.5681 0.5319 -0.6280
vn 0.5031 -0.3284 -0.7994
vn -0.1916 -0.3446 0.9190
vn -0.0402 0.4715 0.8809
vn 0.5597 0.5515 0.6186
vn 0.4887 -0.3075 0.8165
vn -0.2595 -0.3011 -0.9176
vn 0.0227 0.4363 -0.8995
vt 0.325911 0.668680
vt 0.205680 0.972581
vt 0.123843 0.674742
vt 0.563649 0.655106
vt 0.563649 0.527323
vt 0.647377 0.655106
vt 0.563649 0.937138
vt 0.630901 0.860060
vt 0.724019 0.937138
vt 0.563649 0.860060
vt 0.051262 0.920289
vt 0.000000 0.723343
vt 0.294743 0.405753
vt 0.387714 0.518796
vt 0.251740 0.527323
vt 0.260580 0.126348
vt 0.436805 0.117852
vt 0.298492 0.203891
vt 0.436805 0.360463
vt 0.650725 0.452437
vt 0.436805 0.223041
vt 0.631029 -0.000000
vt -0.000000 0.329532
vt 0.089818 0.127002
vt 0.058213 0.482955
vt 0.007299 0.589424
vt 0.707491 1.000000
vt 0.563649 1.000000
vt 0.187588 0.531924
vt 0.421939 1.000000
vt 0.222669 0.048806
vt 0.379186 -0.000000
vt 0.508214 0.860060
vt 0.403278 0.937138
vt 0.488157 0.655106
vt 0.403278 0.879081
vt 0.409643 0.062295
vt 0.878869 0.081332
vt 0.878869 0.223041
vt 0.878869 0.366883
vt 0.436805 0.337941
vt 0.436805 0.094204
vt 0.403278 0.527323
s 0
usemtl Material
f 11/1/1 3/2/1 13/3/1
f 19/4/2 18/5/2 4/6/2
f 23/7/3 1/8/3 12/9/3
f 19/4/4 1/8/4 17/10/4
f 13/3/5 2/11/5 14/12/5
f 16/13/6 7/14/6 12/15/6
f 22/16/7 8/17/7 15/18/7
f 15/18/8 9/19/8 16/13/8
f 9/20/9 20/21/9 10/22/9
f 4/23/10 15/18/10 16/13/10
f 18/24/11 22/16/11 15/18/11
f 1/25/12 16/13/12 12/15/12
f 5/26/13 13/3/13 14/12/13
f 23/7/3 7/27/3 21/28/3
f 10/29/14 11/1/14 13/3/14
f 5/30/3 23/7/3 21/28/3
f 18/24/11 11/31/11 22/16/11
f 6/32/7 22/16/7 11/31/7
f 2/33/4 19/4/4 17/10/4
f 2/33/3 23/7/3 14/34/3
f 3/35/2 18/5/2 19/4/2
f 11/1/15 18/36/15 3/2/15
f 23/7/3 17/10/3 1/8/3
f 19/4/4 4/6/4 1/8/4
f 13/3/16 3/2/16 2/11/16
f 16/13/17 9/19/17 7/14/17
f 22/16/7 20/37/7 8/17/7
f 15/18/18 8/17/18 9/19/18
f 10/22/9 5/38/9 21/39/9
f 21/39/9 7/40/9 9/20/9
f 9/20/9 8/41/9 20/21/9
f 20/21/9 6/42/9 10/22/9
f 10/22/9 21/39/9 9/20/9
f 4/23/19 18/24/19 15/18/19
f 1/25/20 4/23/20 16/13/20
f 5/26/21 10/29/21 13/3/21
f 23/7/3 12/9/3 7/27/3
f 10/29/22 6/43/22 11/1/22
f 5/30/3 14/34/3 23/7/3
f 6/32/7 20/37/7 22/16/7
f 2/33/4 3/35/4 19/4/4
f 2/33/3 17/10/3 23/7/3
